<svg width="256" height="256" viewBox="0 0 256 256" fill="none" xmlns="http://www.w3.org/2000/svg">
<path d="M18.0332 177.5L17.2772 147.512H21.6032L21.7712 165.236C21.7992 166.356 21.7852 167.546 21.7292 168.806C21.6732 170.038 21.5892 171.214 21.4772 172.334H21.6452C22.0092 171.242 22.4572 170.01 22.9892 168.638C23.5212 167.266 24.0392 166.02 24.5432 164.9L32.2712 147.512H36.5132L37.0172 164.858C37.0172 165.614 37.0172 166.44 37.0172 167.336C37.0452 168.204 37.0452 169.072 37.0172 169.94C37.0172 170.808 37.0032 171.606 36.9752 172.334H37.0592C37.3112 171.578 37.5772 170.794 37.8572 169.982C38.1652 169.17 38.4732 168.358 38.7812 167.546C39.0892 166.706 39.3972 165.894 39.7052 165.11L46.9292 147.512H51.5912L38.4872 177.5H33.6572L33.1112 159.86C33.1112 159.132 33.0972 158.404 33.0692 157.676C33.0692 156.948 33.0692 156.248 33.0692 155.576C33.0972 154.876 33.1112 154.218 33.1112 153.602H32.9852C32.6772 154.526 32.3412 155.45 31.9772 156.374C31.6132 157.27 31.1512 158.348 30.5912 159.608L22.8212 177.5H18.0332ZM60.5943 177.92C58.2983 177.92 56.3663 177.458 54.7983 176.534C53.2583 175.61 52.0823 174.294 51.2703 172.586C50.4863 170.85 50.0943 168.82 50.0943 166.496C50.0943 164.816 50.2343 163.178 50.5143 161.582C50.8223 159.958 51.2563 158.432 51.8163 157.004C52.4043 155.548 53.1183 154.218 53.9583 153.014C54.7983 151.81 55.7643 150.76 56.8563 149.864C57.9483 148.968 59.1803 148.282 60.5523 147.806C61.9243 147.302 63.3943 147.05 64.9623 147.05C68.2383 147.05 70.7583 148.086 72.5223 150.158C74.3143 152.202 75.2103 154.988 75.2103 158.516C75.2103 160.224 75.0703 161.89 74.7903 163.514C74.5103 165.11 74.1043 166.636 73.5723 168.092C73.0403 169.548 72.3543 170.878 71.5143 172.082C70.7023 173.258 69.7643 174.28 68.7003 175.148C67.6363 176.016 66.4183 176.702 65.0463 177.206C63.7023 177.682 62.2183 177.92 60.5943 177.92ZM60.8463 174.014C61.8263 174.014 62.7363 173.832 63.5763 173.468C64.4443 173.076 65.2283 172.558 65.9283 171.914C66.6563 171.242 67.3003 170.43 67.8603 169.478C68.4203 168.526 68.8963 167.476 69.2883 166.328C69.6803 165.152 69.9743 163.92 70.1703 162.632C70.3943 161.316 70.5063 159.944 70.5063 158.516C70.5063 156.136 69.9883 154.288 68.9523 152.972C67.9163 151.628 66.4603 150.956 64.5843 150.956C63.6043 150.956 62.6803 151.138 61.8123 151.502C60.9443 151.866 60.1463 152.398 59.4183 153.098C58.6903 153.77 58.0463 154.582 57.4863 155.534C56.9263 156.486 56.4363 157.536 56.0163 158.684C55.6243 159.832 55.3163 161.064 55.0923 162.38C54.8963 163.668 54.7983 165.012 54.7983 166.412C54.7983 168.036 55.0363 169.408 55.5123 170.528C55.9883 171.648 56.6883 172.516 57.6123 173.132C58.5363 173.72 59.6143 174.014 60.8463 174.014ZM89.5513 177.92C87.2553 177.92 85.3233 177.458 83.7553 176.534C82.2153 175.61 81.0393 174.294 80.2273 172.586C79.4433 170.85 79.0513 168.82 79.0513 166.496C79.0513 164.816 79.1913 163.178 79.4713 161.582C79.7793 159.958 80.2133 158.432 80.7733 157.004C81.3613 155.548 82.0753 154.218 82.9153 153.014C83.7553 151.81 84.7213 150.76 85.8133 149.864C86.9053 148.968 88.1373 148.282 89.5093 147.806C90.8813 147.302 92.3513 147.05 93.9193 147.05C97.1953 147.05 99.7153 148.086 101.479 150.158C103.271 152.202 104.167 154.988 104.167 158.516C104.167 160.224 104.027 161.89 103.747 163.514C103.467 165.11 103.061 166.636 102.529 168.092C101.997 169.548 101.311 170.878 100.471 172.082C99.6593 173.258 98.7213 174.28 97.6573 175.148C96.5933 176.016 95.3753 176.702 94.0033 177.206C92.6593 177.682 91.1753 177.92 89.5513 177.92ZM89.8033 174.014C90.7833 174.014 91.6933 173.832 92.5333 173.468C93.4013 173.076 94.1853 172.558 94.8853 171.914C95.6133 171.242 96.2573 170.43 96.8173 169.478C97.3773 168.526 97.8533 167.476 98.2453 166.328C98.6373 165.152 98.9313 163.92 99.1273 162.632C99.3513 161.316 99.4633 159.944 99.4633 158.516C99.4633 156.136 98.9453 154.288 97.9093 152.972C96.8733 151.628 95.4173 150.956 93.5413 150.956C92.5613 150.956 91.6373 151.138 90.7693 151.502C89.9013 151.866 89.1033 152.398 88.3753 153.098C87.6473 153.77 87.0033 154.582 86.4433 155.534C85.8833 156.486 85.3933 157.536 84.9733 158.684C84.5813 159.832 84.2733 161.064 84.0493 162.38C83.8533 163.668 83.7553 165.012 83.7553 166.412C83.7553 168.036 83.9933 169.408 84.4693 170.528C84.9453 171.648 85.6453 172.516 86.5693 173.132C87.4933 173.72 88.5713 174.014 89.8033 174.014ZM106.664 177.5L113.006 147.512H120.062C123.506 147.512 126.18 148.478 128.084 150.41C130.016 152.342 130.982 155.24 130.982 159.104C130.982 161.26 130.744 163.276 130.268 165.152C129.792 167.028 129.092 168.722 128.168 170.234C127.272 171.746 126.138 173.048 124.766 174.14C123.422 175.204 121.868 176.03 120.104 176.618C118.368 177.206 116.436 177.5 114.308 177.5H106.664ZM114.602 173.678C116.142 173.678 117.528 173.44 118.76 172.964C119.992 172.46 121.07 171.774 121.994 170.906C122.946 170.01 123.744 168.96 124.388 167.756C125.032 166.552 125.508 165.222 125.816 163.766C126.152 162.31 126.32 160.798 126.32 159.23C126.32 156.458 125.704 154.456 124.472 153.224C123.268 151.964 121.63 151.334 119.558 151.334H116.618L111.956 173.678H114.602ZM144.956 177.92C142.8 177.92 140.966 177.458 139.454 176.534C137.942 175.61 136.78 174.308 135.968 172.628C135.184 170.92 134.792 168.89 134.792 166.538C134.792 164.746 134.988 162.94 135.38 161.12C135.8 159.272 136.416 157.508 137.228 155.828C138.04 154.148 139.062 152.65 140.294 151.334C141.554 150.018 143.01 148.982 144.662 148.226C146.342 147.47 148.232 147.092 150.332 147.092C151.872 147.092 153.23 147.246 154.406 147.554C155.61 147.834 156.758 148.282 157.85 148.898L156.002 152.594C155.246 152.146 154.406 151.768 153.482 151.46C152.558 151.152 151.494 150.998 150.29 150.998C148.834 150.998 147.518 151.292 146.342 151.88C145.194 152.468 144.186 153.294 143.318 154.358C142.45 155.394 141.722 156.57 141.134 157.886C140.574 159.202 140.154 160.588 139.874 162.044C139.622 163.5 139.496 164.928 139.496 166.328C139.496 168.764 140.042 170.654 141.134 171.998C142.226 173.342 143.794 174.014 145.838 174.014C146.93 174.014 148.008 173.888 149.072 173.636C150.136 173.384 151.2 173.062 152.264 172.67L152.222 176.576C151.214 176.94 150.136 177.248 148.988 177.5C147.84 177.78 146.496 177.92 144.956 177.92ZM157.278 177.5L163.62 147.512H170.13C173.042 147.512 175.254 148.156 176.766 149.444C178.278 150.704 179.034 152.608 179.034 155.156C179.034 156.668 178.782 158.04 178.278 159.272C177.802 160.476 177.06 161.512 176.052 162.38C175.044 163.248 173.77 163.934 172.23 164.438L176.892 177.5H171.978L168.072 165.362H164.292L161.73 177.5H157.278ZM167.652 161.582C168.8 161.582 169.794 161.442 170.634 161.162C171.502 160.882 172.216 160.476 172.776 159.944C173.364 159.412 173.798 158.768 174.078 158.012C174.358 157.256 174.498 156.416 174.498 155.492C174.498 154.008 174.092 152.958 173.28 152.342C172.468 151.698 171.278 151.376 169.71 151.376H167.232L165.09 161.582H167.652ZM177.001 177.5L192.583 147.512H197.707L200.647 177.5H196.237L195.481 168.806H186.031L181.831 177.5H177.001ZM188.089 164.858H195.187L194.683 158.138C194.627 157.158 194.557 156.094 194.473 154.946C194.417 153.798 194.389 152.748 194.389 151.796H194.263C193.871 152.748 193.437 153.77 192.961 154.862C192.513 155.926 192.009 157.032 191.449 158.18L188.089 164.858ZM204.158 177.5L210.5 147.512H225.452L224.654 151.376H214.112L212.096 161.204H221.924L221.042 165.068H211.256L208.61 177.5H204.158ZM228.336 177.5L233.754 151.418H226.32L227.202 147.512H246.606L245.766 151.418H238.29L232.83 177.5H228.336Z" fill="#32323A"/>
<mask id="path-2-outside-1_9_4" maskUnits="userSpaceOnUse" x="13.3613" y="58.3643" width="225" height="77" fill="black">
<rect fill="white" x="13.3613" y="58.3643" width="225" height="77"/>
<path d="M123.656 67.8916C126.945 67.5166 130.054 67.7789 132.661 68.9434C135.24 70.0953 137.403 72.1617 138.788 75.5547C139.699 77.7848 140.396 80.8881 140.883 84.5752L138.209 86.1318C136.545 83.188 134.209 80.8203 131.201 79.0283C128.257 77.1723 124.641 76.2442 120.354 76.2441C116.322 76.2441 112.641 77.1723 109.313 79.0283C105.986 80.8203 103.33 83.4119 101.346 86.8037C99.4257 90.1957 98.4658 94.2284 98.4658 98.9004C98.4659 103.508 99.4258 107.572 101.346 111.092C103.266 114.548 105.857 117.236 109.121 119.156C110.024 119.677 110.958 120.124 111.922 120.504C112.798 121.663 113.697 122.79 114.604 123.858C117.084 126.777 119.677 129.322 122.076 130.879C124.396 132.384 126.956 133.222 129.007 131.812C129.968 131.152 130.751 130.018 131.402 128.677C132.064 127.313 132.643 125.624 133.143 123.729C133.696 121.629 134.159 119.241 134.531 116.7C135.607 115.638 136.546 114.474 137.346 113.204C138.434 111.476 139.266 109.588 139.842 107.54H135.439C135.65 103.796 135.676 100.034 135.502 96.5957H141.701C141.79 101.712 141.612 107.155 141.182 112.462C140.701 118.388 139.909 124.123 138.842 129.029C137.53 129.889 136.136 130.663 134.657 131.348C130.369 133.332 125.474 134.324 119.97 134.324C119.021 134.324 118.084 134.293 117.161 134.235C116.313 133.321 115.461 132.361 114.612 131.362C107.3 122.754 100.383 111.589 97.4736 104.463C94.5902 97.4003 94.5084 91.5166 96.1611 86.6885C97.8185 81.8472 101.26 77.949 105.63 74.9463C110.032 71.9214 117.062 68.6434 123.656 67.8916ZM120.354 63.9561C124.961 63.9561 129.089 64.596 132.737 65.876C136.449 67.156 139.713 68.948 142.529 71.252C144.866 73.0693 146.929 75.1817 148.718 77.5889C148.815 78.3281 148.907 79.0843 148.991 79.8564L142.752 83.4873C142.255 80.0373 141.56 77.0519 140.641 74.7988C139.068 70.9469 136.544 68.487 133.477 67.1172C130.438 65.76 126.939 65.5041 123.43 65.9043C116.426 66.7029 109.088 70.1439 104.497 73.2988C99.8739 76.4759 96.0999 80.6913 94.2686 86.041C92.4326 91.4043 92.5895 97.7909 95.6221 105.219C98.6287 112.583 105.671 123.926 113.088 132.657C113.458 133.093 113.831 133.522 114.203 133.945C111.622 133.597 109.149 133.008 106.782 132.179C99.5231 122.366 93.2288 111.65 90.1895 104.205C86.7492 95.7787 86.2719 88.5778 87.7783 82.4971C89.5151 79.0787 91.7328 76.0976 94.4336 73.5557C97.6975 70.4839 101.537 68.1161 105.953 66.4521C110.369 64.7881 115.17 63.9561 120.354 63.9561ZM15.5029 132.5H15.3613L15.4277 132.359C15.4526 132.406 15.478 132.453 15.5029 132.5ZM18.8945 125.123C20.1313 127.54 21.4204 130.002 22.7598 132.5H17.7695C17.3429 131.701 16.9207 130.905 16.5039 130.113L18.8945 125.123ZM22.4229 117.758C24.7229 122.476 27.2682 127.409 30.0273 132.5H25.0312C23.2607 129.215 21.5752 125.995 19.9824 122.853L22.4229 117.758ZM52.7158 68.1982C51.9002 78.8075 53.7999 90.7042 59.2002 103.932C62.5059 112.029 67.6773 121.974 74.0068 132.5H68.9277C67.1316 129.463 65.4247 126.478 63.8262 123.568L60.8887 117.236H60.457C58.4895 113.419 56.7372 109.782 55.2422 106.388H57.7793L49.4414 87.0918L48.9268 88.2715C47.101 80.9472 46.3206 74.0721 46.4365 67.6328L49.4414 61.3643L52.7158 68.1982ZM61.3672 86.2578C62.2355 91.8938 63.904 97.8691 66.4844 104.189C69.7225 112.121 75.0014 122.076 81.459 132.5H76.3428C69.7783 121.675 64.4234 111.434 61.0518 103.176C56.374 91.7179 54.3965 81.3464 54.541 72.0088L61.3672 86.2578ZM166.015 97.2959C165.909 104.591 165.554 112.058 164.959 119.394C164.599 123.836 164.15 128.227 163.619 132.5H161.034L166.015 97.2959ZM173.146 65.2227C173.332 67.3829 173.494 69.5999 173.629 71.8652C174.544 87.2552 174.258 104.779 172.886 121.703C172.591 125.34 172.242 128.948 171.849 132.5H165.635C166.157 128.272 166.598 123.936 166.953 119.555C167.924 107.58 168.263 95.2495 167.916 83.8633L171.019 61.9404L173.146 65.2227ZM182.156 79.124C182.308 85.5115 182.3 92.1058 182.138 98.7793L179.658 94.7725L175.338 132.5H173.861C174.247 128.998 174.589 125.444 174.879 121.865C176.258 104.86 176.547 87.2422 175.626 71.7471C175.566 70.7379 175.5 69.7373 175.43 68.7461L182.156 79.124ZM230.826 87.0439C230.592 102.056 229.904 117.369 228.783 132.5H222.954L222.793 131.098C224.423 109.232 225.084 86.9445 224.7 65.9102L227.274 61.9404L230.826 87.0439ZM237.005 130.714C236.963 131.309 236.922 131.905 236.879 132.5H230.788C231.606 121.423 232.194 110.249 232.541 99.165L237.005 130.714ZM26.0439 110.197C28.3022 115.168 30.9081 120.462 33.8105 125.99L31.499 131.017C28.5846 125.622 25.9144 120.411 23.5273 115.451L26.0439 110.197ZM84.9834 90.2793C85.1192 94.7681 86.1736 99.6598 88.3379 104.961C91.1766 111.914 96.734 121.553 103.257 130.722C99.8552 129.098 96.8178 127.003 94.1455 124.436C93.818 124.115 93.4993 123.786 93.1865 123.452C90.1628 118.543 87.5193 113.798 85.4375 109.547C84.5241 106.218 84.0655 102.669 84.0654 98.9004C84.0654 95.874 84.3727 93.0003 84.9834 90.2793ZM132.183 118.706C131.897 120.321 131.572 121.839 131.209 123.219C130.729 125.042 130.188 126.596 129.603 127.803C129.006 129.031 128.411 129.795 127.874 130.164C126.927 130.815 125.405 130.655 123.165 129.201C121.005 127.799 118.559 125.425 116.129 122.563C115.835 122.218 115.542 121.866 115.251 121.509C116.876 121.859 118.577 122.036 120.354 122.036C123.105 122.036 125.569 121.684 127.745 120.98C129.412 120.392 130.891 119.633 132.183 118.706ZM82.5137 130.396C76.4048 120.443 71.4204 110.988 68.3359 103.434C67.0208 100.212 65.9507 97.0898 65.1074 94.0645L82.5137 130.396ZM149.833 96.5957C149.845 102.532 149.598 108.719 149.107 114.772C149.011 115.96 148.905 117.141 148.79 118.314C147.814 120.035 146.687 121.661 145.409 123.188C144.153 124.696 142.763 126.063 141.239 127.29C142.107 122.792 142.758 117.766 143.175 112.624C143.609 107.271 143.791 101.774 143.702 96.5957H149.833ZM206.465 94.041C206.316 101.242 206.036 108.519 205.628 115.786L199.146 126.26L198.887 125.841C199.44 118.533 199.852 111.161 200.119 103.83L206.465 94.041ZM30.0635 102.904C32.0315 107.725 34.443 112.984 37.2285 118.562L34.8672 123.693C31.9721 118.123 29.3899 112.806 27.1748 107.837L29.8232 102.309C29.9032 102.507 29.9824 102.706 30.0635 102.904ZM198.121 103.751C197.889 110.139 197.544 116.56 197.093 122.942L191.583 114.04C191.945 107.597 192.184 101.143 192.298 94.7676L198.121 103.751ZM222.747 68.9229C222.971 85.5099 222.554 102.827 221.529 120.06L218.634 94.7725L216.431 98.3311C216.625 91.5758 216.714 84.8648 216.697 78.2559L222.747 68.9229ZM33.8965 93.8057C34.9041 96.8677 36.0516 99.9866 37.3477 103.161C39.119 107.5 41.2819 112.226 43.7764 117.236H38.8018C36.1301 111.863 33.8133 106.798 31.915 102.148C31.6014 101.38 31.2976 100.614 31 99.8525L33.8965 93.8057ZM38.5234 84.1484C39.6955 89.4452 41.3525 94.9429 43.5361 100.645L41.0342 106.388H45.8828C47.3594 109.796 49.0709 113.43 50.9873 117.236H46.0117C43.3505 111.939 41.0565 106.954 39.1992 102.405C37.636 98.5765 36.2928 94.834 35.1553 91.1787L38.5234 84.1484ZM53.0596 106.388C54.5295 109.778 56.2563 113.416 58.2051 117.236H53.2285C51.2952 113.433 49.5644 109.799 48.0654 106.388H53.0596ZM153.665 96.5957C153.857 101.716 153.25 106.548 151.842 111.092C151.661 111.701 151.464 112.301 151.255 112.893C151.646 107.446 151.844 101.924 151.833 96.5957H153.665ZM214.698 81.3398C214.682 88.0628 214.555 94.8825 214.322 101.738L207.817 112.248C208.177 105.091 208.414 97.9369 208.522 90.8672L214.698 81.3398ZM190.343 91.752C190.269 98.1242 190.066 104.59 189.739 111.061L184.054 101.875C184.26 95.2551 184.318 88.6916 184.221 82.3066L190.343 91.752ZM124.827 96.5957C125.121 97.652 125.332 99.1166 125.435 100.842C125.557 102.905 125.525 105.252 125.353 107.54H120.545V96.5957H124.827ZM133.499 96.5957C133.677 100.017 133.648 103.786 133.433 107.54H127.356C127.525 105.221 127.557 102.841 127.431 100.724C127.341 99.2093 127.168 97.7829 126.893 96.5957H133.499ZM44.4805 71.7148C44.7195 77.867 45.7374 84.3695 47.6377 91.2285L44.6846 98.0078C42.553 92.1666 40.9904 86.5579 39.9473 81.1768L44.4805 71.7148Z"/>
</mask>
<path d="M123.656 67.8916C126.945 67.5166 130.054 67.7789 132.661 68.9434C135.24 70.0953 137.403 72.1617 138.788 75.5547C139.699 77.7848 140.396 80.8881 140.883 84.5752L138.209 86.1318C136.545 83.188 134.209 80.8203 131.201 79.0283C128.257 77.1723 124.641 76.2442 120.354 76.2441C116.322 76.2441 112.641 77.1723 109.313 79.0283C105.986 80.8203 103.33 83.4119 101.346 86.8037C99.4257 90.1957 98.4658 94.2284 98.4658 98.9004C98.4659 103.508 99.4258 107.572 101.346 111.092C103.266 114.548 105.857 117.236 109.121 119.156C110.024 119.677 110.958 120.124 111.922 120.504C112.798 121.663 113.697 122.79 114.604 123.858C117.084 126.777 119.677 129.322 122.076 130.879C124.396 132.384 126.956 133.222 129.007 131.812C129.968 131.152 130.751 130.018 131.402 128.677C132.064 127.313 132.643 125.624 133.143 123.729C133.696 121.629 134.159 119.241 134.531 116.7C135.607 115.638 136.546 114.474 137.346 113.204C138.434 111.476 139.266 109.588 139.842 107.54H135.439C135.65 103.796 135.676 100.034 135.502 96.5957H141.701C141.79 101.712 141.612 107.155 141.182 112.462C140.701 118.388 139.909 124.123 138.842 129.029C137.53 129.889 136.136 130.663 134.657 131.348C130.369 133.332 125.474 134.324 119.97 134.324C119.021 134.324 118.084 134.293 117.161 134.235C116.313 133.321 115.461 132.361 114.612 131.362C107.3 122.754 100.383 111.589 97.4736 104.463C94.5902 97.4003 94.5084 91.5166 96.1611 86.6885C97.8185 81.8472 101.26 77.949 105.63 74.9463C110.032 71.9214 117.062 68.6434 123.656 67.8916ZM120.354 63.9561C124.961 63.9561 129.089 64.596 132.737 65.876C136.449 67.156 139.713 68.948 142.529 71.252C144.866 73.0693 146.929 75.1817 148.718 77.5889C148.815 78.3281 148.907 79.0843 148.991 79.8564L142.752 83.4873C142.255 80.0373 141.56 77.0519 140.641 74.7988C139.068 70.9469 136.544 68.487 133.477 67.1172C130.438 65.76 126.939 65.5041 123.43 65.9043C116.426 66.7029 109.088 70.1439 104.497 73.2988C99.8739 76.4759 96.0999 80.6913 94.2686 86.041C92.4326 91.4043 92.5895 97.7909 95.6221 105.219C98.6287 112.583 105.671 123.926 113.088 132.657C113.458 133.093 113.831 133.522 114.203 133.945C111.622 133.597 109.149 133.008 106.782 132.179C99.5231 122.366 93.2288 111.65 90.1895 104.205C86.7492 95.7787 86.2719 88.5778 87.7783 82.4971C89.5151 79.0787 91.7328 76.0976 94.4336 73.5557C97.6975 70.4839 101.537 68.1161 105.953 66.4521C110.369 64.7881 115.17 63.9561 120.354 63.9561ZM15.5029 132.5H15.3613L15.4277 132.359C15.4526 132.406 15.478 132.453 15.5029 132.5ZM18.8945 125.123C20.1313 127.54 21.4204 130.002 22.7598 132.5H17.7695C17.3429 131.701 16.9207 130.905 16.5039 130.113L18.8945 125.123ZM22.4229 117.758C24.7229 122.476 27.2682 127.409 30.0273 132.5H25.0312C23.2607 129.215 21.5752 125.995 19.9824 122.853L22.4229 117.758ZM52.7158 68.1982C51.9002 78.8075 53.7999 90.7042 59.2002 103.932C62.5059 112.029 67.6773 121.974 74.0068 132.5H68.9277C67.1316 129.463 65.4247 126.478 63.8262 123.568L60.8887 117.236H60.457C58.4895 113.419 56.7372 109.782 55.2422 106.388H57.7793L49.4414 87.0918L48.9268 88.2715C47.101 80.9472 46.3206 74.0721 46.4365 67.6328L49.4414 61.3643L52.7158 68.1982ZM61.3672 86.2578C62.2355 91.8938 63.904 97.8691 66.4844 104.189C69.7225 112.121 75.0014 122.076 81.459 132.5H76.3428C69.7783 121.675 64.4234 111.434 61.0518 103.176C56.374 91.7179 54.3965 81.3464 54.541 72.0088L61.3672 86.2578ZM166.015 97.2959C165.909 104.591 165.554 112.058 164.959 119.394C164.599 123.836 164.15 128.227 163.619 132.5H161.034L166.015 97.2959ZM173.146 65.2227C173.332 67.3829 173.494 69.5999 173.629 71.8652C174.544 87.2552 174.258 104.779 172.886 121.703C172.591 125.34 172.242 128.948 171.849 132.5H165.635C166.157 128.272 166.598 123.936 166.953 119.555C167.924 107.58 168.263 95.2495 167.916 83.8633L171.019 61.9404L173.146 65.2227ZM182.156 79.124C182.308 85.5115 182.3 92.1058 182.138 98.7793L179.658 94.7725L175.338 132.5H173.861C174.247 128.998 174.589 125.444 174.879 121.865C176.258 104.86 176.547 87.2422 175.626 71.7471C175.566 70.7379 175.5 69.7373 175.43 68.7461L182.156 79.124ZM230.826 87.0439C230.592 102.056 229.904 117.369 228.783 132.5H222.954L222.793 131.098C224.423 109.232 225.084 86.9445 224.7 65.9102L227.274 61.9404L230.826 87.0439ZM237.005 130.714C236.963 131.309 236.922 131.905 236.879 132.5H230.788C231.606 121.423 232.194 110.249 232.541 99.165L237.005 130.714ZM26.0439 110.197C28.3022 115.168 30.9081 120.462 33.8105 125.99L31.499 131.017C28.5846 125.622 25.9144 120.411 23.5273 115.451L26.0439 110.197ZM84.9834 90.2793C85.1192 94.7681 86.1736 99.6598 88.3379 104.961C91.1766 111.914 96.734 121.553 103.257 130.722C99.8552 129.098 96.8178 127.003 94.1455 124.436C93.818 124.115 93.4993 123.786 93.1865 123.452C90.1628 118.543 87.5193 113.798 85.4375 109.547C84.5241 106.218 84.0655 102.669 84.0654 98.9004C84.0654 95.874 84.3727 93.0003 84.9834 90.2793ZM132.183 118.706C131.897 120.321 131.572 121.839 131.209 123.219C130.729 125.042 130.188 126.596 129.603 127.803C129.006 129.031 128.411 129.795 127.874 130.164C126.927 130.815 125.405 130.655 123.165 129.201C121.005 127.799 118.559 125.425 116.129 122.563C115.835 122.218 115.542 121.866 115.251 121.509C116.876 121.859 118.577 122.036 120.354 122.036C123.105 122.036 125.569 121.684 127.745 120.98C129.412 120.392 130.891 119.633 132.183 118.706ZM82.5137 130.396C76.4048 120.443 71.4204 110.988 68.3359 103.434C67.0208 100.212 65.9507 97.0898 65.1074 94.0645L82.5137 130.396ZM149.833 96.5957C149.845 102.532 149.598 108.719 149.107 114.772C149.011 115.96 148.905 117.141 148.79 118.314C147.814 120.035 146.687 121.661 145.409 123.188C144.153 124.696 142.763 126.063 141.239 127.29C142.107 122.792 142.758 117.766 143.175 112.624C143.609 107.271 143.791 101.774 143.702 96.5957H149.833ZM206.465 94.041C206.316 101.242 206.036 108.519 205.628 115.786L199.146 126.26L198.887 125.841C199.44 118.533 199.852 111.161 200.119 103.83L206.465 94.041ZM30.0635 102.904C32.0315 107.725 34.443 112.984 37.2285 118.562L34.8672 123.693C31.9721 118.123 29.3899 112.806 27.1748 107.837L29.8232 102.309C29.9032 102.507 29.9824 102.706 30.0635 102.904ZM198.121 103.751C197.889 110.139 197.544 116.56 197.093 122.942L191.583 114.04C191.945 107.597 192.184 101.143 192.298 94.7676L198.121 103.751ZM222.747 68.9229C222.971 85.5099 222.554 102.827 221.529 120.06L218.634 94.7725L216.431 98.3311C216.625 91.5758 216.714 84.8648 216.697 78.2559L222.747 68.9229ZM33.8965 93.8057C34.9041 96.8677 36.0516 99.9866 37.3477 103.161C39.119 107.5 41.2819 112.226 43.7764 117.236H38.8018C36.1301 111.863 33.8133 106.798 31.915 102.148C31.6014 101.38 31.2976 100.614 31 99.8525L33.8965 93.8057ZM38.5234 84.1484C39.6955 89.4452 41.3525 94.9429 43.5361 100.645L41.0342 106.388H45.8828C47.3594 109.796 49.0709 113.43 50.9873 117.236H46.0117C43.3505 111.939 41.0565 106.954 39.1992 102.405C37.636 98.5765 36.2928 94.834 35.1553 91.1787L38.5234 84.1484ZM53.0596 106.388C54.5295 109.778 56.2563 113.416 58.2051 117.236H53.2285C51.2952 113.433 49.5644 109.799 48.0654 106.388H53.0596ZM153.665 96.5957C153.857 101.716 153.25 106.548 151.842 111.092C151.661 111.701 151.464 112.301 151.255 112.893C151.646 107.446 151.844 101.924 151.833 96.5957H153.665ZM214.698 81.3398C214.682 88.0628 214.555 94.8825 214.322 101.738L207.817 112.248C208.177 105.091 208.414 97.9369 208.522 90.8672L214.698 81.3398ZM190.343 91.752C190.269 98.1242 190.066 104.59 189.739 111.061L184.054 101.875C184.26 95.2551 184.318 88.6916 184.221 82.3066L190.343 91.752ZM124.827 96.5957C125.121 97.652 125.332 99.1166 125.435 100.842C125.557 102.905 125.525 105.252 125.353 107.54H120.545V96.5957H124.827ZM133.499 96.5957C133.677 100.017 133.648 103.786 133.433 107.54H127.356C127.525 105.221 127.557 102.841 127.431 100.724C127.341 99.2093 127.168 97.7829 126.893 96.5957H133.499ZM44.4805 71.7148C44.7195 77.867 45.7374 84.3695 47.6377 91.2285L44.6846 98.0078C42.553 92.1666 40.9904 86.5579 39.9473 81.1768L44.4805 71.7148Z" fill="#008236"/>
<path d="M123.656 67.8916L123.543 66.898L123.543 66.898L123.656 67.8916ZM132.661 68.9434L133.069 68.0303L133.069 68.0303L132.661 68.9434ZM138.788 75.5547L139.714 75.1767L139.714 75.1767L138.788 75.5547ZM140.883 84.5752L141.386 85.4394L141.961 85.1044L141.874 84.4442L140.883 84.5752ZM138.209 86.1318L137.338 86.6239L137.837 87.5056L138.712 86.996L138.209 86.1318ZM131.201 79.0283L130.668 79.8742L130.679 79.881L130.689 79.8874L131.201 79.0283ZM120.354 76.2441L120.354 75.2441H120.354V76.2441ZM109.313 79.0283L109.788 79.9088L109.794 79.9053L109.801 79.9017L109.313 79.0283ZM101.346 86.8037L100.483 86.2988L100.479 86.3049L100.475 86.3111L101.346 86.8037ZM98.4658 98.9004H97.4658V98.9004L98.4658 98.9004ZM101.346 111.092L100.468 111.571L100.472 111.577L101.346 111.092ZM109.121 119.156L108.614 120.018L108.621 120.022L109.121 119.156ZM111.922 120.504L112.72 119.901L112.55 119.676L112.288 119.573L111.922 120.504ZM114.604 123.858L113.842 124.506V124.506L114.604 123.858ZM122.076 130.879L121.532 131.718L121.532 131.718L122.076 130.879ZM129.007 131.812L129.573 132.637L129.573 132.637L129.007 131.812ZM131.402 128.677L132.302 129.114L132.302 129.114L131.402 128.677ZM133.143 123.729L134.11 123.983V123.983L133.143 123.729ZM134.531 116.7L133.829 115.989L133.59 116.224L133.542 116.555L134.531 116.7ZM137.346 113.204L138.192 113.737L138.192 113.737L137.346 113.204ZM139.842 107.54L140.804 107.811L141.162 106.54H139.842V107.54ZM135.439 107.54L134.441 107.484L134.382 108.54H135.439V107.54ZM135.502 96.5957V95.5957H134.45L134.503 96.6463L135.502 96.5957ZM141.701 96.5957L142.701 96.5783L142.684 95.5957H141.701V96.5957ZM141.182 112.462L142.178 112.543V112.543L141.182 112.462ZM138.842 129.029L139.39 129.866L139.732 129.642L139.819 129.242L138.842 129.029ZM134.657 131.348L135.077 132.255L134.657 131.348ZM119.97 134.324V135.324H119.97L119.97 134.324ZM117.161 134.235L116.428 134.916L116.7 135.208L117.099 135.233L117.161 134.235ZM114.612 131.362L113.85 132.01L114.612 131.362ZM97.4736 104.463L96.5478 104.841L96.5478 104.841L97.4736 104.463ZM96.1611 86.6885L95.215 86.3646L95.215 86.3646L96.1611 86.6885ZM105.63 74.9463L105.064 74.1221L105.064 74.1221L105.63 74.9463ZM120.354 63.9561V62.9561V63.9561ZM132.737 65.876L132.406 66.8196L132.411 66.8213L132.737 65.876ZM142.529 71.252L141.896 72.0259L141.906 72.0337L141.915 72.0413L142.529 71.252ZM148.718 77.5889L149.709 77.4586L149.675 77.2009L149.52 76.9924L148.718 77.5889ZM148.991 79.8564L149.494 80.7207L150.056 80.3939L149.985 79.7478L148.991 79.8564ZM142.752 83.4873L141.762 83.6299L141.974 85.0973L143.255 84.3516L142.752 83.4873ZM140.641 74.7988L141.566 74.4209L141.566 74.4208L140.641 74.7988ZM133.477 67.1172L133.884 66.2041L133.884 66.2041L133.477 67.1172ZM123.43 65.9043L123.316 64.9107L123.316 64.9107L123.43 65.9043ZM104.497 73.2988L103.931 72.4747L103.931 72.4747L104.497 73.2988ZM94.2686 86.041L93.3225 85.7171L93.3224 85.7172L94.2686 86.041ZM95.6221 105.219L94.6963 105.597V105.597L95.6221 105.219ZM113.088 132.657L112.326 133.305L113.088 132.657ZM114.203 133.945L114.07 134.936L116.723 135.294L114.954 133.284L114.203 133.945ZM106.782 132.179L105.978 132.773L106.161 133.021L106.452 133.122L106.782 132.179ZM90.1895 104.205L89.2636 104.583V104.583L90.1895 104.205ZM87.7783 82.4971L86.8868 82.0441L86.8351 82.1458L86.8077 82.2566L87.7783 82.4971ZM94.4336 73.5557L93.7482 72.8275L93.7482 72.8275L94.4336 73.5557ZM105.953 66.4521L105.601 65.5164L105.601 65.5164L105.953 66.4521ZM15.5029 132.5V133.5H17.1659L16.3862 132.031L15.5029 132.5ZM15.3613 132.5L14.4571 132.073L13.7832 133.5H15.3613V132.5ZM15.4277 132.359L16.3112 131.891L15.3758 130.127L14.5235 131.932L15.4277 132.359ZM18.8945 125.123L19.7848 124.668L18.8651 122.87L17.9927 124.691L18.8945 125.123ZM22.7598 132.5V133.5H24.4305L23.6411 132.028L22.7598 132.5ZM17.7695 132.5L16.8873 132.971L17.1697 133.5H17.7695V132.5ZM16.5039 130.113L15.6021 129.681L15.3849 130.134L15.619 130.579L16.5039 130.113ZM22.4229 117.758L23.3217 117.32L22.415 115.46L21.521 117.326L22.4229 117.758ZM30.0273 132.5V133.5H31.7067L30.9065 132.024L30.0273 132.5ZM25.0312 132.5L24.151 132.975L24.4343 133.5H25.0312V132.5ZM19.9824 122.853L19.0806 122.421L18.8676 122.865L19.0904 123.305L19.9824 122.853ZM52.7158 68.1982L53.7129 68.2749L53.7334 68.0078L53.6176 67.7661L52.7158 68.1982ZM59.2002 103.932L58.2744 104.31L58.2744 104.31L59.2002 103.932ZM74.0068 132.5V133.5H75.775L74.8638 131.985L74.0068 132.5ZM68.9277 132.5L68.067 133.009L68.3573 133.5H68.9277V132.5ZM63.8262 123.568L62.919 123.989L62.9333 124.02L62.9497 124.05L63.8262 123.568ZM60.8887 117.236L61.7958 116.815L61.5271 116.236H60.8887V117.236ZM60.457 117.236L59.5682 117.694L59.8474 118.236H60.457V117.236ZM55.2422 106.388V105.388H53.709L54.327 106.791L55.2422 106.388ZM57.7793 106.388V107.388H59.3008L58.6973 105.991L57.7793 106.388ZM49.4414 87.0918L50.3594 86.6951L49.4458 84.5809L48.5248 86.6919L49.4414 87.0918ZM48.9268 88.2715L47.9565 88.5134L48.6676 91.3663L49.8433 88.6713L48.9268 88.2715ZM46.4365 67.6328L45.5348 67.2006L45.4406 67.397L45.4367 67.6148L46.4365 67.6328ZM49.4414 61.3643L50.3432 60.9322L49.4416 59.0504L48.5397 60.932L49.4414 61.3643ZM61.3672 86.2578L62.3555 86.1055L62.333 85.9593L62.269 85.8258L61.3672 86.2578ZM66.4844 104.189L65.5586 104.567H65.5586L66.4844 104.189ZM81.459 132.5V133.5H83.2548L82.3091 131.973L81.459 132.5ZM76.3428 132.5L75.4877 133.019L75.7797 133.5H76.3428V132.5ZM61.0518 103.176L60.1259 103.554L60.1259 103.554L61.0518 103.176ZM54.541 72.0088L55.4429 71.5767L53.5411 71.9933L54.541 72.0088ZM166.015 97.2959L167.015 97.3104L165.025 97.1558L166.015 97.2959ZM164.959 119.394L165.956 119.474V119.474L164.959 119.394ZM163.619 132.5V133.5H164.503L164.612 132.623L163.619 132.5ZM161.034 132.5L160.044 132.36L159.883 133.5H161.034V132.5ZM173.146 65.2227L174.142 65.1365L174.12 64.8881L173.985 64.6788L173.146 65.2227ZM173.629 71.8652L174.627 71.8059V71.8059L173.629 71.8652ZM172.886 121.703L173.882 121.784L172.886 121.703ZM171.849 132.5V133.5H172.744L172.843 132.61L171.849 132.5ZM165.635 132.5L164.642 132.378L164.504 133.5H165.635V132.5ZM166.953 119.555L167.95 119.635L166.953 119.555ZM167.916 83.8633L166.926 83.7232L166.914 83.808L166.916 83.8937L167.916 83.8633ZM171.019 61.9404L171.858 61.3966L170.403 59.152L170.028 61.8003L171.019 61.9404ZM182.156 79.124L183.156 79.1002L183.149 78.8175L182.995 78.5801L182.156 79.124ZM182.138 98.7793L181.287 99.3055L183.056 102.163L183.137 98.8036L182.138 98.7793ZM179.658 94.7725L180.509 94.2463L178.992 91.7963L178.665 94.6587L179.658 94.7725ZM175.338 132.5V133.5H176.23L176.331 132.614L175.338 132.5ZM173.861 132.5L172.867 132.39L172.745 133.5H173.861V132.5ZM174.879 121.865L175.876 121.946L174.879 121.865ZM175.626 71.7471L176.624 71.6877V71.6877L175.626 71.7471ZM175.43 68.7461L176.269 68.2022L174.432 68.8169L175.43 68.7461ZM230.826 87.0439L231.826 87.0595L231.827 86.9813L231.816 86.9039L230.826 87.0439ZM228.783 132.5V133.5H229.712L229.78 132.574L228.783 132.5ZM222.954 132.5L221.961 132.614L222.062 133.5H222.954V132.5ZM222.793 131.098L221.796 131.023L221.789 131.118L221.799 131.212L222.793 131.098ZM224.7 65.9102L223.861 65.3661L223.695 65.6226L223.7 65.9284L224.7 65.9102ZM227.274 61.9404L228.265 61.8003L227.89 59.1531L226.435 61.3963L227.274 61.9404ZM237.005 130.714L238.002 130.783L238.01 130.678L237.995 130.574L237.005 130.714ZM236.879 132.5V133.5H237.81L237.876 132.572L236.879 132.5ZM230.788 132.5L229.791 132.426L229.712 133.5H230.788V132.5ZM232.541 99.165L233.531 99.0249L231.542 99.1337L232.541 99.165ZM26.0439 110.197L26.9544 109.784L26.0679 107.832L25.1421 109.765L26.0439 110.197ZM33.8105 125.99L34.7191 126.408L34.9246 125.961L34.696 125.525L33.8105 125.99ZM31.499 131.017L30.6192 131.492L31.5709 133.254L32.4076 131.434L31.499 131.017ZM23.5273 115.451L22.6255 115.019L22.418 115.452L22.6263 115.885L23.5273 115.451ZM84.9834 90.2793L85.9829 90.2491L84.0077 90.0603L84.9834 90.2793ZM88.3379 104.961L87.4121 105.339V105.339L88.3379 104.961ZM103.257 130.722L102.826 131.624L106.309 133.287L104.072 130.142L103.257 130.722ZM94.1455 124.436L93.4455 125.15L93.4527 125.157L94.1455 124.436ZM93.1865 123.452L92.3351 123.977L92.3879 124.062L92.4569 124.136L93.1865 123.452ZM85.4375 109.547L84.4731 109.811L84.498 109.902L84.5394 109.987L85.4375 109.547ZM84.0654 98.9004H83.0654V98.9004L84.0654 98.9004ZM132.183 118.706L133.167 118.88L133.595 116.462L131.6 117.894L132.183 118.706ZM131.209 123.219L132.176 123.474V123.474L131.209 123.219ZM129.603 127.803L130.502 128.24L130.502 128.24L129.603 127.803ZM127.874 130.164L128.44 130.988L128.44 130.988L127.874 130.164ZM123.165 129.201L122.621 130.04L122.621 130.04L123.165 129.201ZM116.129 122.563L115.367 123.211V123.211L116.129 122.563ZM115.251 121.509L115.462 120.531L112.674 119.93L114.476 122.141L115.251 121.509ZM120.354 122.036V123.036H120.354L120.354 122.036ZM127.745 120.98L128.053 121.932L128.065 121.928L128.078 121.923L127.745 120.98ZM82.5137 130.396L81.6614 130.92L83.4155 129.964L82.5137 130.396ZM68.3359 103.434L67.4101 103.812L67.4101 103.812L68.3359 103.434ZM65.1074 94.0645L66.0093 93.6324L64.1441 94.333L65.1074 94.0645ZM149.833 96.5957L150.833 96.5936L150.831 95.5957H149.833V96.5957ZM149.107 114.772L150.104 114.853L149.107 114.772ZM148.79 118.314L149.66 118.808L149.765 118.623L149.785 118.412L148.79 118.314ZM145.409 123.188L144.642 122.547L144.641 122.548L145.409 123.188ZM141.239 127.29L140.257 127.101L139.74 129.781L141.866 128.069L141.239 127.29ZM143.175 112.624L144.172 112.705V112.705L143.175 112.624ZM143.702 96.5957V95.5957H142.685L142.702 96.6128L143.702 96.5957ZM206.465 94.041L207.465 94.0617L207.537 90.5483L205.626 93.4971L206.465 94.041ZM205.628 115.786L206.478 116.312L206.612 116.096L206.626 115.842L205.628 115.786ZM199.146 126.26L198.297 126.787L199.147 128.159L199.997 126.786L199.146 126.26ZM198.887 125.841L197.89 125.765L197.865 126.091L198.037 126.368L198.887 125.841ZM200.119 103.83L199.28 103.286L199.13 103.518L199.12 103.794L200.119 103.83ZM30.0635 102.904L29.1377 103.282L29.1377 103.282L30.0635 102.904ZM37.2285 118.562L38.1369 118.981L38.3374 118.545L38.1232 118.116L37.2285 118.562ZM34.8672 123.693L33.9799 124.155L34.9217 125.967L35.7756 124.111L34.8672 123.693ZM27.1748 107.837L26.273 107.405L26.0732 107.822L26.2614 108.244L27.1748 107.837ZM29.8232 102.309L30.7505 101.934L29.9013 99.8311L28.9214 101.877L29.8232 102.309ZM198.121 103.751L199.12 103.787L199.132 103.472L198.96 103.207L198.121 103.751ZM197.093 122.942L196.242 123.469L197.872 126.102L198.09 123.013L197.093 122.942ZM191.583 114.04L190.585 113.984L190.567 114.298L190.733 114.566L191.583 114.04ZM192.298 94.7676L193.137 94.2236L191.356 91.4765L191.298 94.7498L192.298 94.7676ZM222.747 68.9229L223.747 68.9093L223.702 65.6106L221.908 68.3789L222.747 68.9229ZM221.529 120.06L220.536 120.173L222.528 120.119L221.529 120.06ZM218.634 94.7725L219.627 94.6587L219.3 91.7972L217.784 94.2461L218.634 94.7725ZM216.431 98.3311L215.431 98.3024L215.324 102.018L217.281 98.8574L216.431 98.3311ZM216.697 78.2559L215.858 77.7119L215.697 77.9613L215.697 78.2584L216.697 78.2559ZM33.8965 93.8057L34.8464 93.4931L34.069 91.1307L32.9946 93.3737L33.8965 93.8057ZM37.3477 103.161L36.4218 103.539L36.4218 103.539L37.3477 103.161ZM43.7764 117.236V118.236H45.3913L44.6716 116.791L43.7764 117.236ZM38.8018 117.236L37.9063 117.682L38.1822 118.236H38.8018V117.236ZM31.915 102.148L30.9892 102.526L30.9892 102.526L31.915 102.148ZM31 99.8525L30.0981 99.4205L29.9106 99.8121L30.0686 100.216L31 99.8525ZM38.5234 84.1484L39.4998 83.9324L38.8737 81.1028L37.6216 83.7164L38.5234 84.1484ZM43.5361 100.645L44.4529 101.044L44.6163 100.669L44.47 100.287L43.5361 100.645ZM41.0342 106.388L40.1174 105.988L39.5078 107.388H41.0342V106.388ZM45.8828 106.388L46.8004 105.99L46.5394 105.388H45.8828V106.388ZM50.9873 117.236V118.236H52.6103L51.8805 116.787L50.9873 117.236ZM46.0117 117.236L45.1181 117.685L45.395 118.236H46.0117V117.236ZM39.1992 102.405L38.2734 102.783L38.2734 102.783L39.1992 102.405ZM35.1553 91.1787L34.2534 90.7466L34.0837 91.1008L34.2004 91.4759L35.1553 91.1787ZM53.0596 106.388L53.977 105.99L53.7159 105.388H53.0596V106.388ZM58.2051 117.236V118.236H59.8378L59.0959 116.782L58.2051 117.236ZM53.2285 117.236L52.3371 117.689L52.6151 118.236H53.2285V117.236ZM48.0654 106.388V105.388H46.5337L47.1499 106.79L48.0654 106.388ZM153.665 96.5957L154.664 96.5582L154.628 95.5957H153.665V96.5957ZM151.842 111.092L150.887 110.796L150.883 110.808L151.842 111.092ZM151.255 112.893L150.257 112.821L152.198 113.226L151.255 112.893ZM151.833 96.5957V95.5957H150.831L150.833 96.5978L151.833 96.5957ZM214.698 81.3398L215.698 81.3423L215.706 77.946L213.859 80.7959L214.698 81.3398ZM214.322 101.738L215.173 102.265L215.313 102.038L215.322 101.772L214.322 101.738ZM207.817 112.248L206.819 112.198L208.668 112.774L207.817 112.248ZM208.522 90.8672L207.683 90.3233L207.527 90.5645L207.523 90.8519L208.522 90.8672ZM190.343 91.752L191.343 91.7636L191.346 91.4615L191.182 91.2081L190.343 91.752ZM189.739 111.061L188.889 111.587L190.576 114.313L190.738 111.111L189.739 111.061ZM184.054 101.875L183.054 101.844L183.045 102.145L183.203 102.401L184.054 101.875ZM184.221 82.3066L185.06 81.7627L183.168 78.8433L183.221 82.3219L184.221 82.3066ZM124.827 96.5957L125.791 96.3276L125.587 95.5957H124.827V96.5957ZM125.435 100.842L126.433 100.782V100.782L125.435 100.842ZM125.353 107.54V108.54H126.28L126.35 107.615L125.353 107.54ZM120.545 107.54H119.545V108.54H120.545V107.54ZM120.545 96.5957V95.5957H119.545V96.5957H120.545ZM133.499 96.5957L134.498 96.5438L134.448 95.5957H133.499V96.5957ZM133.433 107.54V108.54H134.377L134.431 107.597L133.433 107.54ZM127.356 107.54L126.359 107.467L126.281 108.54H127.356V107.54ZM127.431 100.724L128.429 100.664V100.664L127.431 100.724ZM126.893 96.5957V95.5957H125.634L125.918 96.8218L126.893 96.5957ZM44.4805 71.7148L45.4797 71.676L43.5786 71.2828L44.4805 71.7148ZM47.6377 91.2285L48.5545 91.6279L48.696 91.303L48.6014 90.9615L47.6377 91.2285ZM44.6846 98.0078L43.7452 98.3506L44.6025 100.7L45.6014 98.4072L44.6846 98.0078ZM39.9473 81.1768L39.0454 80.7447L38.9027 81.0427L38.9655 81.3671L39.9473 81.1768ZM123.656 67.8916L123.77 68.8852C126.948 68.5228 129.862 68.7883 132.253 69.8564L132.661 68.9434L133.069 68.0303C130.246 66.7695 126.943 66.5104 123.543 66.898L123.656 67.8916ZM132.661 68.9434L132.253 69.8564C134.589 70.8995 136.571 72.7692 137.862 75.9327L138.788 75.5547L139.714 75.1767C138.235 71.5543 135.892 69.2911 133.069 68.0303L132.661 68.9434ZM138.788 75.5547L137.862 75.9327C138.726 78.0476 139.409 81.054 139.891 84.7062L140.883 84.5752L141.874 84.4442C141.382 80.7221 140.671 77.522 139.714 75.1767L138.788 75.5547ZM140.883 84.5752L140.38 83.711L137.706 85.2676L138.209 86.1318L138.712 86.996L141.386 85.4394L140.883 84.5752ZM138.209 86.1318L139.08 85.6398C137.327 82.5389 134.865 80.0469 131.713 78.1692L131.201 79.0283L130.689 79.8874C133.553 81.5936 135.763 83.837 137.338 86.6239L138.209 86.1318ZM131.201 79.0283L131.734 78.1824C128.597 76.2047 124.786 75.2442 120.354 75.2441L120.354 76.2441L120.354 77.2441C124.497 77.2442 127.917 78.14 130.668 79.8742L131.201 79.0283ZM120.354 76.2441V75.2441C116.161 75.2441 112.312 76.2111 108.826 78.155L109.313 79.0283L109.801 79.9017C112.971 78.1336 116.482 77.2441 120.354 77.2441V76.2441ZM109.313 79.0283L108.839 78.1479C105.343 80.0304 102.555 82.755 100.483 86.2988L101.346 86.8037L102.209 87.3086C104.104 84.0688 106.628 81.6101 109.788 79.9088L109.313 79.0283ZM101.346 86.8037L100.475 86.3111C98.4549 89.8807 97.4658 94.0901 97.4658 98.9004H98.4658H99.4658C99.4658 94.3667 100.396 90.5108 102.216 87.2963L101.346 86.8037ZM98.4658 98.9004L97.4658 98.9004C97.4659 103.65 98.4565 107.883 100.468 111.571L101.346 111.092L102.224 110.613C100.395 107.261 99.4659 103.366 99.4658 98.9004L98.4658 98.9004ZM101.346 111.092L100.472 111.577C102.474 115.182 105.189 118.004 108.614 120.018L109.121 119.156L109.628 118.294C106.525 116.469 104.057 113.913 102.22 110.606L101.346 111.092ZM109.121 119.156L108.621 120.022C109.568 120.569 110.547 121.037 111.555 121.434L111.922 120.504L112.288 119.573C111.369 119.211 110.479 118.785 109.621 118.29L109.121 119.156ZM111.922 120.504L111.124 121.107C112.01 122.279 112.921 123.421 113.842 124.506L114.604 123.858L115.367 123.211C114.473 122.159 113.585 121.046 112.72 119.901L111.922 120.504ZM114.604 123.858L113.842 124.506C116.346 127.453 119.013 130.083 121.532 131.718L122.076 130.879L122.62 130.04C120.341 128.561 117.821 126.101 115.367 123.211L114.604 123.858ZM122.076 130.879L121.532 131.718C123.887 133.246 126.968 134.427 129.573 132.637L129.007 131.812L128.44 130.988C126.944 132.017 124.904 131.522 122.62 130.04L122.076 130.879ZM129.007 131.812L129.573 132.637C130.747 131.83 131.623 130.512 132.302 129.114L131.402 128.677L130.503 128.24C129.879 129.524 129.19 130.473 128.44 130.988L129.007 131.812ZM131.402 128.677L132.302 129.114C133.002 127.671 133.6 125.915 134.11 123.983L133.143 123.729L132.176 123.474C131.686 125.334 131.127 126.955 130.503 128.24L131.402 128.677ZM133.143 123.729L134.11 123.983C134.675 121.839 135.145 119.413 135.521 116.845L134.531 116.7L133.542 116.555C133.174 119.07 132.717 121.419 132.176 123.474L133.143 123.729ZM134.531 116.7L135.234 117.412C136.363 116.297 137.351 115.073 138.192 113.737L137.346 113.204L136.499 112.671C135.742 113.875 134.851 114.979 133.829 115.989L134.531 116.7ZM137.346 113.204L138.192 113.737C139.333 111.924 140.204 109.947 140.804 107.811L139.842 107.54L138.879 107.269C138.328 109.229 137.534 111.028 136.499 112.671L137.346 113.204ZM139.842 107.54V106.54H135.439V107.54V108.54H139.842V107.54ZM135.439 107.54L136.438 107.596C136.65 103.821 136.677 100.023 136.501 96.5451L135.502 96.5957L134.503 96.6463C134.675 100.045 134.65 103.771 134.441 107.484L135.439 107.54ZM135.502 96.5957V97.5957H141.701V96.5957V95.5957H135.502V96.5957ZM141.701 96.5957L140.701 96.6131C140.79 101.695 140.613 107.106 140.185 112.381L141.182 112.462L142.178 112.543C142.611 107.205 142.791 101.729 142.701 96.5783L141.701 96.5957ZM141.182 112.462L140.185 112.381C139.707 118.274 138.92 123.964 137.865 128.817L138.842 129.029L139.819 129.242C140.898 124.282 141.695 118.502 142.178 112.543L141.182 112.462ZM138.842 129.029L138.294 128.193C137.024 129.025 135.673 129.776 134.237 130.44L134.657 131.348L135.077 132.255C136.6 131.551 138.037 130.752 139.39 129.866L138.842 129.029ZM134.657 131.348L134.237 130.44C130.101 132.354 125.352 133.324 119.97 133.324L119.97 134.324L119.97 135.324C125.595 135.324 130.638 134.309 135.077 132.255L134.657 131.348ZM119.97 134.324V133.324C119.043 133.324 118.127 133.294 117.224 133.237L117.161 134.235L117.099 135.233C118.042 135.293 118.999 135.324 119.97 135.324V134.324ZM117.161 134.235L117.894 133.555C117.056 132.652 116.214 131.703 115.374 130.715L114.612 131.362L113.85 132.01C114.708 133.019 115.57 133.991 116.428 134.916L117.161 134.235ZM114.612 131.362L115.374 130.715C108.114 122.168 101.261 111.093 98.3994 104.085L97.4736 104.463L96.5478 104.841C99.506 112.086 106.486 123.34 113.85 132.01L114.612 131.362ZM97.4736 104.463L98.3994 104.085C95.5906 97.2051 95.5461 91.573 97.1072 87.0123L96.1611 86.6885L95.215 86.3646C93.4707 91.4602 93.5898 97.5956 96.5478 104.841L97.4736 104.463ZM96.1611 86.6885L97.1072 87.0124C98.6777 82.4252 101.954 78.686 106.196 75.7705L105.63 74.9463L105.064 74.1221C100.567 77.2121 96.9594 81.2693 95.215 86.3646L96.1611 86.6885ZM105.63 74.9463L106.196 75.7705C110.504 72.8106 117.381 69.6136 123.77 68.8852L123.656 67.8916L123.543 66.898C116.744 67.6733 109.56 71.0322 105.064 74.1221L105.63 74.9463ZM120.354 63.9561V64.9561C124.87 64.9561 128.883 65.5833 132.406 66.8196L132.737 65.876L133.068 64.9324C129.296 63.6087 125.053 62.9561 120.354 62.9561V63.9561ZM132.737 65.876L132.411 66.8213C136.02 68.0659 139.179 69.8025 141.896 72.0259L142.529 71.252L143.163 70.478C140.248 68.0935 136.878 66.2461 133.063 64.9306L132.737 65.876ZM142.529 71.252L141.915 72.0413C144.18 73.8025 146.179 75.8497 147.915 78.1854L148.718 77.5889L149.52 76.9924C147.678 74.5136 145.552 72.3362 143.143 70.4626L142.529 71.252ZM148.718 77.5889L147.726 77.7192C147.823 78.4519 147.914 79.2008 147.997 79.9651L148.991 79.8564L149.985 79.7478C149.9 78.9678 149.807 78.2043 149.709 77.4586L148.718 77.5889ZM148.991 79.8564L148.488 78.9921L142.249 82.623L142.752 83.4873L143.255 84.3516L149.494 80.7207L148.991 79.8564ZM142.752 83.4873L143.742 83.3447C143.24 79.8578 142.53 76.7817 141.566 74.4209L140.641 74.7988L139.715 75.1768C140.591 77.3221 141.271 80.2169 141.762 83.6299L142.752 83.4873ZM140.641 74.7988L141.566 74.4208C139.9 70.3394 137.195 67.6828 133.884 66.2041L133.477 67.1172L133.069 68.0303C135.892 69.2912 138.236 71.5544 139.715 75.1768L140.641 74.7988ZM133.477 67.1172L133.884 66.2041C130.63 64.7506 126.937 64.498 123.316 64.9107L123.43 65.9043L123.543 66.8979C126.942 66.5103 130.246 66.7694 133.069 68.0303L133.477 67.1172ZM123.43 65.9043L123.316 64.9107C116.107 65.7327 108.616 69.2547 103.931 72.4747L104.497 73.2988L105.063 74.123C109.56 71.033 116.744 67.6731 123.543 66.8979L123.43 65.9043ZM104.497 73.2988L103.931 72.4747C99.1809 75.7388 95.2408 80.1132 93.3225 85.7171L94.2686 86.041L95.2147 86.3649C96.959 81.2695 100.567 77.213 105.063 74.123L104.497 73.2988ZM94.2686 86.041L93.3224 85.7172C91.3949 91.348 91.5892 97.9864 94.6963 105.597L95.6221 105.219L96.5479 104.841C93.5899 97.5955 93.4704 91.4605 95.2147 86.3649L94.2686 86.041ZM95.6221 105.219L94.6963 105.597C97.7514 113.08 104.857 124.512 112.326 133.305L113.088 132.657L113.85 132.01C106.486 123.34 99.506 112.086 96.5479 104.841L95.6221 105.219ZM113.088 132.657L112.326 133.305C112.7 133.746 113.077 134.179 113.453 134.606L114.203 133.945L114.954 133.284C114.584 132.865 114.216 132.44 113.85 132.01L113.088 132.657ZM114.203 133.945L114.337 132.954C111.821 132.615 109.414 132.041 107.113 131.235L106.782 132.179L106.452 133.122C108.885 133.975 111.424 134.58 114.07 134.936L114.203 133.945ZM106.782 132.179L107.586 131.584C100.357 121.813 94.113 111.17 91.1153 103.827L90.1895 104.205L89.2636 104.583C92.3446 112.129 98.6887 122.92 105.978 132.773L106.782 132.179ZM90.1895 104.205L91.1153 103.827C87.7401 95.5601 87.3024 88.5771 88.749 82.7375L87.7783 82.4971L86.8077 82.2566C85.2416 88.5785 85.7583 95.9973 89.2636 104.583L90.1895 104.205ZM87.7783 82.4971L88.6698 82.95C90.3562 79.6309 92.5053 76.7438 95.119 74.2839L94.4336 73.5557L93.7482 72.8275C90.9603 75.4514 88.674 78.5266 86.8868 82.0441L87.7783 82.4971ZM94.4336 73.5557L95.1189 74.2839C98.2817 71.3073 102.007 69.0078 106.306 67.3879L105.953 66.4521L105.601 65.5164C101.068 67.2244 97.1133 69.6604 93.7482 72.8275L94.4336 73.5557ZM105.953 66.4521L106.306 67.3879C110.598 65.7704 115.278 64.9561 120.354 64.9561V63.9561V62.9561C115.061 62.9561 110.14 63.8059 105.601 65.5164L105.953 66.4521ZM15.5029 132.5V131.5H15.3613V132.5V133.5H15.5029V132.5ZM15.3613 132.5L16.2656 132.927L16.332 132.786L15.4277 132.359L14.5235 131.932L14.4571 132.073L15.3613 132.5ZM15.4277 132.359L14.5443 132.828C14.5581 132.854 14.5718 132.88 14.5842 132.903C14.597 132.926 14.6085 132.948 14.6197 132.969L15.5029 132.5L16.3862 132.031C16.3725 132.005 16.3588 131.98 16.3464 131.957C16.3337 131.933 16.3223 131.912 16.3112 131.891L15.4277 132.359ZM18.8945 125.123L18.0043 125.579C19.2441 128.002 20.5361 130.468 21.8784 132.972L22.7598 132.5L23.6411 132.028C22.3047 129.535 21.0186 127.079 19.7848 124.668L18.8945 125.123ZM22.7598 132.5V131.5H17.7695V132.5V133.5H22.7598V132.5ZM17.7695 132.5L18.6518 132.029C18.2258 131.231 17.8045 130.437 17.3888 129.647L16.5039 130.113L15.619 130.579C16.0369 131.373 16.46 132.17 16.8873 132.971L17.7695 132.5ZM16.5039 130.113L17.4058 130.545L19.7964 125.555L18.8945 125.123L17.9927 124.691L15.6021 129.681L16.5039 130.113ZM22.4229 117.758L21.524 118.196C23.831 122.929 26.3829 127.874 29.1482 132.976L30.0273 132.5L30.9065 132.024C28.1534 126.944 25.6149 122.024 23.3217 117.32L22.4229 117.758ZM30.0273 132.5V131.5H25.0312V132.5V133.5H30.0273V132.5ZM25.0312 132.5L25.9115 132.025C24.1447 128.748 22.4631 125.535 20.8744 122.4L19.9824 122.853L19.0904 123.305C20.6872 126.455 22.3767 129.683 24.151 132.975L25.0312 132.5ZM19.9824 122.853L20.8843 123.285L23.3247 118.19L22.4229 117.758L21.521 117.326L19.0806 122.421L19.9824 122.853ZM52.7158 68.1982L51.7188 68.1216C50.8893 78.9106 52.8255 90.963 58.2744 104.31L59.2002 103.932L60.126 103.554C54.7744 90.4454 52.9111 78.7045 53.7129 68.2749L52.7158 68.1982ZM59.2002 103.932L58.2744 104.31C61.6059 112.47 66.8044 122.463 73.1498 133.015L74.0068 132.5L74.8638 131.985C68.5502 121.485 63.4059 111.587 60.126 103.554L59.2002 103.932ZM74.0068 132.5V131.5H68.9277V132.5V133.5H74.0068V132.5ZM68.9277 132.5L69.7885 131.991C67.9971 128.962 66.2955 125.986 64.7026 123.087L63.8262 123.568L62.9497 124.05C64.5539 126.97 66.2661 129.964 68.067 133.009L68.9277 132.5ZM63.8262 123.568L64.7333 123.148L61.7958 116.815L60.8887 117.236L59.9815 117.657L62.919 123.989L63.8262 123.568ZM60.8887 117.236V116.236H60.457V117.236V118.236H60.8887V117.236ZM60.457 117.236L61.3459 116.778C59.3858 112.975 57.6427 109.357 56.1574 105.985L55.2422 106.388L54.327 106.791C55.8318 110.207 57.5931 113.863 59.5682 117.694L60.457 117.236ZM55.2422 106.388V107.388H57.7793V106.388V105.388H55.2422V106.388ZM57.7793 106.388L58.6973 105.991L50.3594 86.6951L49.4414 87.0918L48.5234 87.4885L56.8613 106.784L57.7793 106.388ZM49.4414 87.0918L48.5248 86.6919L48.0102 87.8716L48.9268 88.2715L49.8433 88.6713L50.358 87.4917L49.4414 87.0918ZM48.9268 88.2715L49.8971 88.0296C48.0907 80.7835 47.3221 73.9958 47.4364 67.6508L46.4365 67.6328L45.4367 67.6148C45.3191 74.1485 46.1112 81.111 47.9565 88.5134L48.9268 88.2715ZM46.4365 67.6328L47.3383 68.0651L50.3432 61.7965L49.4414 61.3643L48.5397 60.932L45.5348 67.2006L46.4365 67.6328ZM49.4414 61.3643L48.5396 61.7964L51.814 68.6303L52.7158 68.1982L53.6176 67.7661L50.3432 60.9322L49.4414 61.3643ZM61.3672 86.2578L60.3788 86.4101C61.2604 92.1317 62.9519 98.1827 65.5586 104.567L66.4844 104.189L67.4102 103.811C64.8561 97.5556 63.2107 91.6559 62.3555 86.1055L61.3672 86.2578ZM66.4844 104.189L65.5586 104.567C68.825 112.568 74.1341 122.575 80.6089 133.027L81.459 132.5L82.3091 131.973C75.8688 121.577 70.6201 111.674 67.4102 103.811L66.4844 104.189ZM81.459 132.5V131.5H76.3428V132.5V133.5H81.459V132.5ZM76.3428 132.5L77.1978 131.981C70.6496 121.183 65.3227 110.991 61.9776 102.798L61.0518 103.176L60.1259 103.554C63.5241 111.877 68.9071 122.166 75.4877 133.019L76.3428 132.5ZM61.0518 103.176L61.9776 102.798C57.3424 91.4445 55.3988 81.2068 55.5409 72.0243L54.541 72.0088L53.5411 71.9933C53.3942 81.486 55.4055 91.9913 60.1259 103.554L61.0518 103.176ZM54.541 72.0088L53.6392 72.4408L60.4653 86.6899L61.3672 86.2578L62.269 85.8258L55.4429 71.5767L54.541 72.0088ZM166.015 97.2959L165.015 97.2814C164.909 104.554 164.555 111.999 163.962 119.313L164.959 119.394L165.956 119.474C166.552 112.117 166.908 104.627 167.015 97.3104L166.015 97.2959ZM164.959 119.394L163.962 119.313C163.603 123.741 163.156 128.118 162.627 132.377L163.619 132.5L164.612 132.623C165.144 128.336 165.594 123.93 165.956 119.474L164.959 119.394ZM163.619 132.5V131.5H161.034V132.5V133.5H163.619V132.5ZM161.034 132.5L162.024 132.64L167.005 97.436L166.015 97.2959L165.025 97.1558L160.044 132.36L161.034 132.5ZM173.146 65.2227L172.149 65.3088C172.335 67.46 172.496 69.668 172.631 71.9246L173.629 71.8652L174.627 71.8059C174.492 69.5317 174.329 67.3059 174.142 65.1365L173.146 65.2227ZM173.629 71.8652L172.631 71.9246C173.543 87.262 173.258 104.739 171.889 121.622L172.886 121.703L173.882 121.784C175.258 104.819 175.545 87.2484 174.627 71.8059L173.629 71.8652ZM172.886 121.703L171.889 121.622C171.595 125.249 171.247 128.847 170.855 132.39L171.849 132.5L172.843 132.61C173.237 129.049 173.587 125.431 173.882 121.784L172.886 121.703ZM171.849 132.5V131.5H165.635V132.5V133.5H171.849V132.5ZM165.635 132.5L166.627 132.622C167.151 128.38 167.594 124.03 167.95 119.635L166.953 119.555L165.956 119.474C165.602 123.841 165.162 128.164 164.642 132.378L165.635 132.5ZM166.953 119.555L167.95 119.635C168.923 107.626 169.264 95.2586 168.916 83.8328L167.916 83.8633L166.916 83.8937C167.262 95.2403 166.924 107.533 165.956 119.474L166.953 119.555ZM167.916 83.8633L168.906 84.0034L172.009 62.0806L171.019 61.9404L170.028 61.8003L166.926 83.7232L167.916 83.8633ZM171.019 61.9404L170.179 62.4843L172.306 65.7665L173.146 65.2227L173.985 64.6788L171.858 61.3966L171.019 61.9404ZM182.156 79.124L181.157 79.1478C181.308 85.5182 181.3 92.0965 181.138 98.755L182.138 98.7793L183.137 98.8036C183.3 92.1151 183.308 85.5047 183.156 79.1002L182.156 79.124ZM182.138 98.7793L182.988 98.2531L180.509 94.2463L179.658 94.7725L178.808 95.2987L181.287 99.3055L182.138 98.7793ZM179.658 94.7725L178.665 94.6587L174.344 132.386L175.338 132.5L176.331 132.614L180.652 94.8862L179.658 94.7725ZM175.338 132.5V131.5H173.861V132.5V133.5H175.338V132.5ZM173.861 132.5L174.855 132.61C175.242 129.098 175.585 125.535 175.876 121.946L174.879 121.865L173.882 121.784C173.593 125.354 173.252 128.898 172.867 132.39L173.861 132.5ZM174.879 121.865L175.876 121.946C177.258 104.901 177.549 87.2354 176.624 71.6877L175.626 71.7471L174.628 71.8064C175.546 87.249 175.258 104.82 173.882 121.784L174.879 121.865ZM175.626 71.7471L176.624 71.6877C176.564 70.6743 176.498 69.6699 176.427 68.6753L175.43 68.7461L174.432 68.8169C174.502 69.8047 174.568 70.8014 174.628 71.8064L175.626 71.7471ZM175.43 68.7461L174.591 69.29L181.317 79.6679L182.156 79.124L182.995 78.5801L176.269 68.2022L175.43 68.7461ZM230.826 87.0439L229.826 87.0283C229.592 102.021 228.905 117.314 227.786 132.426L228.783 132.5L229.78 132.574C230.902 117.424 231.592 102.092 231.826 87.0595L230.826 87.0439ZM228.783 132.5V131.5H222.954V132.5V133.5H228.783V132.5ZM222.954 132.5L223.948 132.386L223.786 130.984L222.793 131.098L221.799 131.212L221.961 132.614L222.954 132.5ZM222.793 131.098L223.79 131.172C225.423 109.277 226.084 86.9588 225.7 65.8919L224.7 65.9102L223.7 65.9284C224.084 86.9302 223.424 109.187 221.796 131.023L222.793 131.098ZM224.7 65.9102L225.539 66.4542L228.113 62.4845L227.274 61.9404L226.435 61.3963L223.861 65.3661L224.7 65.9102ZM227.274 61.9404L226.284 62.0805L229.836 87.184L230.826 87.0439L231.816 86.9039L228.265 61.8003L227.274 61.9404ZM237.005 130.714L236.007 130.644C235.966 131.24 235.924 131.834 235.881 132.428L236.879 132.5L237.876 132.572C237.919 131.975 237.961 131.379 238.002 130.783L237.005 130.714ZM236.879 132.5V131.5H230.788V132.5V133.5H236.879V132.5ZM230.788 132.5L231.785 132.574C232.604 121.483 233.193 110.294 233.541 99.1964L232.541 99.165L231.542 99.1337C231.195 110.204 230.608 121.364 229.791 132.426L230.788 132.5ZM232.541 99.165L231.551 99.3051L236.015 130.854L237.005 130.714L237.995 130.574L233.531 99.0249L232.541 99.165ZM26.0439 110.197L25.1335 110.611C27.4008 115.601 30.0153 120.912 32.9251 126.455L33.8105 125.99L34.696 125.525C31.8009 120.011 29.2037 114.734 26.9544 109.784L26.0439 110.197ZM33.8105 125.99L32.902 125.572L30.5905 130.599L31.499 131.017L32.4076 131.434L34.7191 126.408L33.8105 125.99ZM31.499 131.017L32.3789 130.541C29.4709 125.158 26.8079 119.961 24.4284 115.017L23.5273 115.451L22.6263 115.885C25.0209 120.86 27.6983 126.085 30.6192 131.492L31.499 131.017ZM23.5273 115.451L24.4292 115.883L26.9458 110.629L26.0439 110.197L25.1421 109.765L22.6255 115.019L23.5273 115.451ZM84.9834 90.2793L83.9839 90.3095C84.1238 94.9342 85.2094 99.9436 87.4121 105.339L88.3379 104.961L89.2637 104.583C87.1379 99.376 86.1146 94.602 85.9829 90.2491L84.9834 90.2793ZM88.3379 104.961L87.4121 105.339C90.2897 112.387 95.8927 122.096 102.442 131.301L103.257 130.722L104.072 130.142C97.5753 121.011 92.0634 111.44 89.2637 104.583L88.3379 104.961ZM103.257 130.722L103.688 129.819C100.381 128.241 97.4321 126.207 94.8383 123.714L94.1455 124.436L93.4527 125.157C96.2035 127.8 99.3298 129.955 102.826 131.624L103.257 130.722ZM94.1455 124.436L94.8454 123.721C94.53 123.412 94.2213 123.094 93.9162 122.768L93.1865 123.452L92.4569 124.136C92.7773 124.478 93.106 124.817 93.4456 125.15L94.1455 124.436ZM93.1865 123.452L94.038 122.928C91.0277 118.04 88.4006 113.324 86.3356 109.107L85.4375 109.547L84.5394 109.987C86.638 114.272 89.2978 119.045 92.3351 123.977L93.1865 123.452ZM85.4375 109.547L86.4019 109.282C85.5141 106.047 85.0655 102.588 85.0654 98.9004L84.0654 98.9004L83.0654 98.9004C83.0655 102.751 83.5341 106.389 84.4731 109.811L85.4375 109.547ZM84.0654 98.9004H85.0654C85.0654 95.9419 85.3657 93.142 85.9591 90.4983L84.9834 90.2793L84.0077 90.0603C83.3796 92.8586 83.0654 95.8061 83.0654 98.9004H84.0654ZM132.183 118.706L131.198 118.532C130.916 120.126 130.597 121.616 130.242 122.964L131.209 123.219L132.176 123.474C132.548 122.062 132.878 120.516 133.167 118.88L132.183 118.706ZM131.209 123.219L130.242 122.964C129.771 124.751 129.251 126.238 128.703 127.366L129.603 127.803L130.502 128.24C131.126 126.955 131.686 125.334 132.176 123.474L131.209 123.219ZM129.603 127.803L128.703 127.366C128.134 128.538 127.632 129.117 127.308 129.34L127.874 130.164L128.44 130.988C129.19 130.473 129.878 129.524 130.502 128.24L129.603 127.803ZM127.874 130.164L127.308 129.34C126.91 129.613 125.903 129.786 123.709 128.362L123.165 129.201L122.621 130.04C124.907 131.523 126.945 132.016 128.44 130.988L127.874 130.164ZM123.165 129.201L123.709 128.362C121.669 127.038 119.297 124.748 116.891 121.916L116.129 122.563L115.367 123.211C117.821 126.101 120.341 128.561 122.621 130.04L123.165 129.201ZM116.129 122.563L116.891 121.916C116.602 121.575 116.313 121.229 116.026 120.877L115.251 121.509L114.476 122.141C114.771 122.503 115.069 122.86 115.367 123.211L116.129 122.563ZM115.251 121.509L115.04 122.486C116.738 122.852 118.51 123.036 120.354 123.036V122.036V121.036C118.643 121.036 117.014 120.866 115.462 120.531L115.251 121.509ZM120.354 122.036L120.354 123.036C123.189 123.036 125.76 122.674 128.053 121.932L127.745 120.98L127.437 120.029C125.379 120.695 123.021 121.036 120.354 121.036L120.354 122.036ZM127.745 120.98L128.078 121.923C129.825 121.307 131.39 120.506 132.766 119.519L132.183 118.706L131.6 117.894C130.392 118.76 129 119.477 127.412 120.037L127.745 120.98ZM82.5137 130.396L83.366 129.873C77.2738 119.947 72.3186 110.543 69.2617 103.056L68.3359 103.434L67.4101 103.812C70.5221 111.434 75.5359 120.939 81.6614 130.92L82.5137 130.396ZM68.3359 103.434L69.2618 103.056C67.9604 99.868 66.903 96.7819 66.0707 93.796L65.1074 94.0645L64.1441 94.333C64.9984 97.3976 66.0813 100.557 67.4101 103.812L68.3359 103.434ZM65.1074 94.0645L64.2056 94.4965L81.6118 130.829L82.5137 130.396L83.4155 129.964L66.0093 93.6324L65.1074 94.0645ZM149.833 96.5957L148.833 96.5978C148.845 102.505 148.599 108.665 148.111 114.692L149.107 114.772L150.104 114.853C150.597 108.773 150.845 102.558 150.833 96.5936L149.833 96.5957ZM149.107 114.772L148.111 114.692C148.015 115.873 147.909 117.049 147.795 118.217L148.79 118.314L149.785 118.412C149.901 117.234 150.007 116.046 150.104 114.853L149.107 114.772ZM148.79 118.314L147.92 117.821C146.974 119.489 145.881 121.065 144.642 122.547L145.409 123.188L146.176 123.83C147.493 122.256 148.654 120.581 149.66 118.808L148.79 118.314ZM145.409 123.188L144.641 122.548C143.427 124.005 142.084 125.326 140.612 126.511L141.239 127.29L141.866 128.069C143.442 126.8 144.879 125.387 146.177 123.829L145.409 123.188ZM141.239 127.29L142.221 127.479C143.097 122.939 143.752 117.876 144.172 112.705L143.175 112.624L142.178 112.543C141.764 117.656 141.117 122.645 140.257 127.101L141.239 127.29ZM143.175 112.624L144.172 112.705C144.608 107.32 144.791 101.791 144.702 96.5786L143.702 96.5957L142.702 96.6128C142.79 101.757 142.61 107.221 142.178 112.543L143.175 112.624ZM143.702 96.5957V97.5957H149.833V96.5957V95.5957H143.702V96.5957ZM206.465 94.041L205.465 94.0203C205.316 101.21 205.037 108.475 204.63 115.73L205.628 115.786L206.626 115.842C207.035 108.564 207.315 101.275 207.465 94.0617L206.465 94.041ZM205.628 115.786L204.778 115.26L198.296 125.734L199.146 126.26L199.997 126.786L206.478 116.312L205.628 115.786ZM199.146 126.26L199.996 125.733L199.737 125.314L198.887 125.841L198.037 126.368L198.297 126.787L199.146 126.26ZM198.887 125.841L199.884 125.916C200.438 118.595 200.851 111.21 201.118 103.866L200.119 103.83L199.12 103.794C198.854 111.112 198.442 118.471 197.89 125.765L198.887 125.841ZM200.119 103.83L200.958 104.374L207.304 94.585L206.465 94.041L205.626 93.4971L199.28 103.286L200.119 103.83ZM30.0635 102.904L29.1377 103.282C31.1171 108.131 33.5396 113.413 36.3338 119.009L37.2285 118.562L38.1232 118.116C35.3465 112.554 32.9459 107.319 30.9893 102.526L30.0635 102.904ZM37.2285 118.562L36.3201 118.144L33.9588 123.275L34.8672 123.693L35.7756 124.111L38.1369 118.981L37.2285 118.562ZM34.8672 123.693L35.7545 123.232C32.867 117.676 30.2938 112.378 28.0882 107.43L27.1748 107.837L26.2614 108.244C28.486 113.234 31.0771 118.569 33.9799 124.155L34.8672 123.693ZM27.1748 107.837L28.0767 108.269L30.7251 102.741L29.8232 102.309L28.9214 101.877L26.273 107.405L27.1748 107.837ZM29.8232 102.309L28.896 102.683C28.9731 102.874 29.056 103.082 29.1377 103.282L30.0635 102.904L30.9893 102.526C30.9089 102.329 30.8334 102.14 30.7505 101.934L29.8232 102.309ZM198.121 103.751L197.122 103.715C196.89 110.091 196.546 116.501 196.095 122.872L197.093 122.942L198.09 123.013C198.542 116.619 198.888 110.187 199.12 103.787L198.121 103.751ZM197.093 122.942L197.943 122.416L192.433 113.514L191.583 114.04L190.733 114.566L196.242 123.469L197.093 122.942ZM191.583 114.04L192.581 114.096C192.944 107.64 193.184 101.174 193.298 94.7854L192.298 94.7676L191.298 94.7498C191.185 101.113 190.946 107.553 190.585 113.984L191.583 114.04ZM192.298 94.7676L191.459 95.3115L197.282 104.295L198.121 103.751L198.96 103.207L193.137 94.2236L192.298 94.7676ZM222.747 68.9229L221.747 68.9364C221.971 85.4979 221.555 102.791 220.531 120L221.529 120.06L222.528 120.119C223.554 102.864 223.971 85.5219 223.747 68.9093L222.747 68.9229ZM221.529 120.06L222.523 119.946L219.627 94.6587L218.634 94.7725L217.64 94.8862L220.536 120.173L221.529 120.06ZM218.634 94.7725L217.784 94.2461L215.58 97.8047L216.431 98.3311L217.281 98.8574L219.484 95.2988L218.634 94.7725ZM216.431 98.3311L217.43 98.3597C217.624 91.5944 217.714 84.8729 217.697 78.2533L216.697 78.2559L215.697 78.2584C215.714 84.8566 215.625 91.5572 215.431 98.3024L216.431 98.3311ZM216.697 78.2559L217.536 78.7998L223.586 69.4668L222.747 68.9229L221.908 68.3789L215.858 77.7119L216.697 78.2559ZM33.8965 93.8057L32.9466 94.1182C33.9617 97.2029 35.1172 100.344 36.4218 103.539L37.3477 103.161L38.2735 102.783C36.986 99.6296 35.8466 96.5325 34.8464 93.4931L33.8965 93.8057ZM37.3477 103.161L36.4218 103.539C38.2044 107.905 40.3781 112.654 42.8812 117.682L43.7764 117.236L44.6716 116.791C42.1858 111.797 40.0336 107.094 38.2735 102.783L37.3477 103.161ZM43.7764 117.236V116.236H38.8018V117.236V118.236H43.7764V117.236ZM38.8018 117.236L39.6972 116.791C37.034 111.435 34.7279 106.393 32.8409 101.77L31.915 102.148L30.9892 102.526C32.8986 107.203 35.2261 112.291 37.9063 117.682L38.8018 117.236ZM31.915 102.148L32.8409 101.77C32.5297 101.008 32.2278 100.247 31.9314 99.4887L31 99.8525L30.0686 100.216C30.3674 100.981 30.6731 101.752 30.9892 102.526L31.915 102.148ZM31 99.8525L31.9019 100.285L34.7984 94.2377L33.8965 93.8057L32.9946 93.3737L30.0981 99.4205L31 99.8525ZM38.5234 84.1484L37.5471 84.3645C38.7305 89.7129 40.4023 95.2579 42.6023 101.002L43.5361 100.645L44.47 100.287C42.3027 94.6279 40.6604 89.1775 39.4998 83.9324L38.5234 84.1484ZM43.5361 100.645L42.6194 100.245L40.1174 105.988L41.0342 106.388L41.951 106.787L44.4529 101.044L43.5361 100.645ZM41.0342 106.388V107.388H45.8828V106.388V105.388H41.0342V106.388ZM45.8828 106.388L44.9652 106.785C46.4506 110.214 48.1705 113.865 50.0941 117.686L50.9873 117.236L51.8805 116.787C49.9713 112.995 48.2682 109.378 46.8004 105.99L45.8828 106.388ZM50.9873 117.236V116.236H46.0117V117.236V118.236H50.9873V117.236ZM46.0117 117.236L46.9053 116.787C44.253 111.508 41.9705 106.547 40.125 102.027L39.1992 102.405L38.2734 102.783C40.1425 107.361 42.4479 112.37 45.1181 117.685L46.0117 117.236ZM39.1992 102.405L40.125 102.027C38.5723 98.224 37.2388 94.5085 36.1101 90.8816L35.1553 91.1787L34.2004 91.4759C35.3468 95.1595 36.6998 98.9289 38.2734 102.783L39.1992 102.405ZM35.1553 91.1787L36.0571 91.6108L39.4253 84.5805L38.5234 84.1484L37.6216 83.7164L34.2534 90.7466L35.1553 91.1787ZM53.0596 106.388L52.1421 106.785C53.6216 110.198 55.3576 113.855 57.3143 117.691L58.2051 117.236L59.0959 116.782C57.1549 112.977 55.4374 109.358 53.977 105.99L53.0596 106.388ZM58.2051 117.236V116.236H53.2285V117.236V118.236H58.2051V117.236ZM53.2285 117.236L54.12 116.783C52.1938 112.994 50.4713 109.377 48.9809 105.985L48.0654 106.388L47.1499 106.79C48.6576 110.221 50.3966 113.872 52.3371 117.689L53.2285 117.236ZM48.0654 106.388V107.388H53.0596V106.388V105.388H48.0654V106.388ZM153.665 96.5957L152.666 96.6332C152.854 101.649 152.259 106.368 150.887 110.796L151.842 111.092L152.797 111.388C154.241 106.728 154.86 101.782 154.664 96.5582L153.665 96.5957ZM151.842 111.092L150.883 110.808C150.708 111.399 150.516 111.982 150.312 112.559L151.255 112.893L152.198 113.226C152.412 112.621 152.615 112.004 152.801 111.375L151.842 111.092ZM151.255 112.893L152.252 112.964C152.645 107.494 152.844 101.947 152.833 96.5936L151.833 96.5957L150.833 96.5978C150.844 101.9 150.647 107.398 150.257 112.821L151.255 112.893ZM151.833 96.5957V97.5957H153.665V96.5957V95.5957H151.833V96.5957ZM214.698 81.3398L213.698 81.3374C213.682 88.0494 213.555 94.8586 213.323 101.704L214.322 101.738L215.322 101.772C215.554 94.9063 215.682 88.0761 215.698 81.3423L214.698 81.3398ZM214.322 101.738L213.472 101.212L206.967 111.722L207.817 112.248L208.668 112.774L215.173 102.265L214.322 101.738ZM207.817 112.248L208.816 112.298C209.177 105.13 209.414 97.9642 209.522 90.8825L208.522 90.8672L207.523 90.8519C207.415 97.9097 207.178 105.052 206.819 112.198L207.817 112.248ZM208.522 90.8672L209.362 91.4111L215.537 81.8838L214.698 81.3398L213.859 80.7959L207.683 90.3233L208.522 90.8672ZM190.343 91.752L189.343 91.7403C189.269 98.0994 189.067 104.553 188.741 111.01L189.739 111.061L190.738 111.111C191.065 104.628 191.269 98.1491 191.343 91.7636L190.343 91.752ZM189.739 111.061L190.59 110.534L184.904 101.349L184.054 101.875L183.203 102.401L188.889 111.587L189.739 111.061ZM184.054 101.875L185.053 101.906C185.26 95.2717 185.319 88.6927 185.221 82.2913L184.221 82.3066L183.221 82.3219C183.318 88.6905 183.26 95.2385 183.054 101.844L184.054 101.875ZM184.221 82.3066L183.382 82.8505L189.504 92.2959L190.343 91.752L191.182 91.2081L185.06 81.7627L184.221 82.3066ZM124.827 96.5957L123.864 96.8638C124.131 97.8254 124.336 99.2123 124.436 100.901L125.435 100.842L126.433 100.782C126.328 99.0209 126.111 97.4786 125.791 96.3276L124.827 96.5957ZM125.435 100.842L124.436 100.901C124.556 102.913 124.525 105.215 124.355 107.465L125.353 107.54L126.35 107.615C126.525 105.288 126.558 102.896 126.433 100.782L125.435 100.842ZM125.353 107.54V106.54H120.545V107.54V108.54H125.353V107.54ZM120.545 107.54H121.545V96.5957H120.545H119.545V107.54H120.545ZM120.545 96.5957V97.5957H124.827V96.5957V95.5957H120.545V96.5957ZM133.499 96.5957L132.5 96.6476C132.676 100.028 132.647 103.76 132.434 107.483L133.433 107.54L134.431 107.597C134.648 103.812 134.678 100.006 134.498 96.5438L133.499 96.5957ZM133.433 107.54V106.54H127.356V107.54V108.54H133.433V107.54ZM127.356 107.54L128.354 107.613C128.525 105.256 128.558 102.832 128.429 100.664L127.431 100.724L126.432 100.783C126.555 102.85 126.525 105.185 126.359 107.467L127.356 107.54ZM127.431 100.724L128.429 100.664C128.337 99.118 128.16 97.631 127.867 96.3696L126.893 96.5957L125.918 96.8218C126.177 97.9348 126.344 99.3007 126.432 100.783L127.431 100.724ZM126.893 96.5957V97.5957H133.499V96.5957V95.5957H126.893V96.5957ZM44.4805 71.7148L43.4812 71.7537C43.7235 77.989 44.7547 84.5681 46.674 91.4955L47.6377 91.2285L48.6014 90.9615C46.72 84.1709 45.7155 77.745 45.4797 71.676L44.4805 71.7148ZM47.6377 91.2285L46.7209 90.8292L43.7678 97.6084L44.6846 98.0078L45.6014 98.4072L48.5545 91.6279L47.6377 91.2285ZM44.6846 98.0078L45.624 97.665C43.5091 91.8696 41.9613 86.3119 40.929 80.9864L39.9473 81.1768L38.9655 81.3671C40.0195 86.804 41.5969 92.4636 43.7452 98.3506L44.6846 98.0078ZM39.9473 81.1768L40.8491 81.6088L45.3823 72.1469L44.4805 71.7148L43.5786 71.2828L39.0454 80.7447L39.9473 81.1768Z" fill="#00A63E" mask="url(#path-2-outside-1_9_4)"/>
</svg>
