<svg width="256" height="256" viewBox="0 0 256 256" fill="none" xmlns="http://www.w3.org/2000/svg">
<mask id="path-1-outside-1_50_90" maskUnits="userSpaceOnUse" x="14.6782" y="60.02" width="225" height="77" fill="black">
<rect fill="white" x="14.6782" y="60.02" width="225" height="77"/>
<path d="M124.973 69.5474C128.262 69.1724 131.371 69.4347 133.978 70.5991C136.557 71.7511 138.72 73.8175 140.105 77.2104C141.015 79.4406 141.712 82.5438 142.2 86.231L139.526 87.7876C137.862 84.8437 135.526 82.476 132.518 80.6841C129.574 78.8281 125.958 77.8999 121.67 77.8999C117.638 77.8999 113.958 78.8281 110.63 80.6841C107.303 82.476 104.647 85.0677 102.663 88.4595C100.743 91.8515 99.7827 95.8842 99.7827 100.556C99.7828 105.164 100.743 109.228 102.663 112.748C104.583 116.204 107.174 118.892 110.438 120.812C111.341 121.333 112.275 121.78 113.239 122.16C114.115 123.318 115.014 124.446 115.921 125.514C118.401 128.433 120.994 130.978 123.393 132.535C125.713 134.04 128.273 134.878 130.324 133.468C131.285 132.807 132.068 131.674 132.719 130.333C133.381 128.969 133.96 127.28 134.459 125.384C135.013 123.285 135.476 120.897 135.848 118.356C136.924 117.294 137.863 116.129 138.663 114.86C139.751 113.132 140.583 111.244 141.159 109.196H136.756C136.967 105.452 136.993 101.69 136.819 98.2515H143.018C143.107 103.368 142.929 108.811 142.499 114.118C142.018 120.044 141.226 125.779 140.159 130.685C138.847 131.545 137.453 132.319 135.974 133.003C131.686 134.987 126.79 135.98 121.287 135.98C120.338 135.98 119.401 135.949 118.478 135.891C117.63 134.977 116.778 134.017 115.929 133.018C108.617 124.409 101.7 113.245 98.7905 106.119C95.9071 99.0561 95.8253 93.1724 97.478 88.3442C99.1354 83.503 102.577 79.6048 106.947 76.6021C111.349 73.5771 118.379 70.2992 124.973 69.5474ZM121.67 65.6118C126.278 65.6118 130.406 66.2518 134.054 67.5317C137.766 68.8117 141.03 70.6037 143.846 72.9077C146.183 74.7251 148.246 76.8374 150.035 79.2446C150.132 79.9839 150.224 80.74 150.308 81.5122L144.069 85.1431C143.572 81.6931 142.877 78.7077 141.958 76.4546C140.385 72.6026 137.861 70.1428 134.793 68.7729C131.754 67.4157 128.256 67.1599 124.747 67.5601C117.742 68.3587 110.405 71.7996 105.814 74.9546C101.191 78.1316 97.4168 82.3471 95.5854 87.6968C93.7495 93.06 93.9064 99.4467 96.939 106.875C99.9456 114.239 106.988 125.582 114.405 134.313C114.775 134.749 115.147 135.178 115.52 135.601C112.939 135.253 110.466 134.664 108.099 133.834C100.84 124.022 94.5457 113.305 91.5063 105.861C88.0661 97.4344 87.5888 90.2335 89.0952 84.1528C90.832 80.7345 93.0497 77.7534 95.7505 75.2114C99.0144 72.1396 102.854 69.7719 107.27 68.1079C111.686 66.4439 116.486 65.6118 121.67 65.6118ZM16.8198 134.156H16.6782L16.7446 134.015C16.7695 134.062 16.7949 134.109 16.8198 134.156ZM20.2114 126.779C21.4482 129.196 22.7373 131.657 24.0767 134.156H19.0864C18.6598 133.356 18.2376 132.561 17.8208 131.769L20.2114 126.779ZM23.7397 119.414C26.0398 124.132 28.5851 129.065 31.3442 134.156H26.3481C24.5776 130.871 22.8921 127.651 21.2993 124.508L23.7397 119.414ZM54.0327 69.854C53.2171 80.4633 55.1168 92.3599 60.5171 105.587C63.8228 113.684 68.9942 123.63 75.3237 134.156H70.2446C68.4485 131.118 66.7416 128.134 65.1431 125.224L62.2056 118.892H61.7739C59.8064 115.075 58.0541 111.438 56.5591 108.043H59.0962L50.7583 88.7476L50.2437 89.9272C48.4179 82.603 47.6375 75.7279 47.7534 69.2886L50.7583 63.02L54.0327 69.854ZM62.6841 87.9136C63.5524 93.5496 65.2209 99.5249 67.8013 105.845C71.0394 113.777 76.3183 123.732 82.7759 134.156H77.6597C71.0952 123.33 65.7403 113.09 62.3687 104.832C57.6908 93.3737 55.7134 83.0022 55.8579 73.6646L62.6841 87.9136ZM167.332 98.9517C167.226 106.247 166.871 113.714 166.276 121.049C165.916 125.492 165.467 129.883 164.936 134.156H162.351L167.332 98.9517ZM174.462 66.8784C174.649 69.0387 174.811 71.2556 174.946 73.521C175.861 88.9109 175.575 106.435 174.203 123.359C173.908 126.996 173.559 130.604 173.166 134.156H166.952C167.473 129.928 167.915 125.591 168.27 121.21C169.241 109.235 169.58 96.9052 169.233 85.519L172.335 63.5962L174.462 66.8784ZM183.473 80.7798C183.625 87.1672 183.617 93.7616 183.455 100.435L180.975 96.4282L176.655 134.156H175.178C175.564 130.654 175.906 127.1 176.196 123.521C177.574 106.516 177.864 88.898 176.943 73.4028C176.883 72.3936 176.817 71.3931 176.747 70.4019L183.473 80.7798ZM232.143 88.6997C231.909 103.712 231.22 119.025 230.1 134.156H224.271L224.11 132.753C225.74 110.888 226.401 88.6003 226.017 67.5659L228.591 63.5962L232.143 88.6997ZM238.322 132.37C238.28 132.965 238.238 133.561 238.196 134.156H232.105C232.923 123.079 233.511 111.905 233.858 100.821L238.322 132.37ZM27.3608 111.853C29.6191 116.824 32.225 122.117 35.1274 127.646L32.8159 132.672C29.9015 127.277 27.2313 122.066 24.8442 117.107L27.3608 111.853ZM86.3003 91.9351C86.4361 96.4238 87.4905 101.316 89.6548 106.617C92.4935 113.57 98.0509 123.209 104.574 132.377C101.172 130.754 98.1347 128.659 95.4624 126.091C95.1349 125.77 94.8162 125.442 94.5034 125.108C91.4797 120.199 88.8362 115.453 86.7544 111.203C85.841 107.874 85.3824 104.325 85.3823 100.556C85.3823 97.5298 85.6895 94.6561 86.3003 91.9351ZM133.5 120.362C133.214 121.977 132.889 123.495 132.526 124.875C132.045 126.698 131.505 128.252 130.919 129.458C130.323 130.687 129.728 131.451 129.191 131.82C128.244 132.47 126.722 132.31 124.482 130.857C122.322 129.455 119.876 127.08 117.446 124.219C117.152 123.874 116.859 123.522 116.568 123.165C118.193 123.515 119.894 123.692 121.67 123.692C124.422 123.692 126.886 123.34 129.062 122.636C130.729 122.048 132.208 121.288 133.5 120.362ZM83.8306 132.052C77.7217 122.099 72.7373 112.644 69.6528 105.089C68.3377 101.868 67.2676 98.7455 66.4243 95.7202L83.8306 132.052ZM151.15 98.2515C151.162 104.187 150.915 110.375 150.424 116.428C150.328 117.615 150.222 118.797 150.107 119.97C149.131 121.691 148.004 123.316 146.726 124.844C145.47 126.351 144.08 127.719 142.556 128.946C143.424 124.448 144.075 119.422 144.492 114.28C144.926 108.927 145.108 103.43 145.019 98.2515H151.15ZM207.782 95.6968C207.633 102.898 207.353 110.175 206.945 117.442L200.463 127.916L200.204 127.497C200.757 120.189 201.169 112.817 201.436 105.486L207.782 95.6968ZM31.3804 104.56C33.3484 109.38 35.7599 114.639 38.5454 120.218L36.1841 125.349C33.289 119.778 30.7068 114.462 28.4917 109.493L31.1401 103.964C31.2201 104.162 31.2993 104.362 31.3804 104.56ZM199.438 105.407C199.206 111.795 198.861 118.216 198.41 124.598L192.9 115.696C193.262 109.253 193.501 102.799 193.615 96.4233L199.438 105.407ZM224.064 70.5786C224.288 87.1656 223.871 104.483 222.846 121.715L219.951 96.4282L217.748 99.9868C217.941 93.2316 218.031 86.5205 218.014 79.9116L224.064 70.5786ZM35.2134 95.4614C36.221 98.5235 37.3685 101.642 38.6646 104.817C40.4359 109.156 42.5988 113.882 45.0933 118.892H40.1187C37.447 113.519 35.1302 108.454 33.2319 103.804C32.9183 103.036 32.6145 102.27 32.3169 101.508L35.2134 95.4614ZM39.8403 85.8042C41.0124 91.101 42.6693 96.5987 44.853 102.3L42.3511 108.043H47.1997C48.6763 111.452 50.3878 115.086 52.3042 118.892H47.3286C44.6674 113.595 42.3734 108.61 40.5161 104.061C38.9529 100.232 37.6097 96.4898 36.4722 92.8345L39.8403 85.8042ZM54.3765 108.043C55.8464 111.434 57.5732 115.072 59.522 118.892H54.5454C52.6121 115.089 50.8813 111.455 49.3823 108.043H54.3765ZM154.982 98.2515C155.174 103.371 154.567 108.204 153.159 112.748C152.978 113.357 152.781 113.957 152.572 114.548C152.963 109.102 153.161 103.579 153.15 98.2515H154.982ZM216.015 82.9956C215.999 89.7185 215.872 96.5382 215.639 103.394L209.134 113.904C209.494 106.747 209.731 99.5927 209.839 92.5229L216.015 82.9956ZM191.66 93.4077C191.586 99.78 191.383 106.246 191.056 112.716L185.371 103.531C185.577 96.9109 185.635 90.3474 185.538 83.9624L191.66 93.4077ZM126.144 98.2515C126.438 99.3078 126.649 100.772 126.751 102.498C126.874 104.56 126.842 106.907 126.669 109.196H121.862V98.2515H126.144ZM134.816 98.2515C134.994 101.673 134.964 105.442 134.75 109.196H128.673C128.842 106.877 128.873 104.497 128.748 102.379C128.658 100.865 128.485 99.4387 128.209 98.2515H134.816ZM45.7974 73.3706C46.0364 79.5227 47.0543 86.0252 48.9546 92.8843L46.0015 99.6636C43.8699 93.8224 42.3073 88.2137 41.2642 82.8325L45.7974 73.3706Z"/>
</mask>
<path d="M124.973 69.5474C128.262 69.1724 131.371 69.4347 133.978 70.5991C136.557 71.7511 138.72 73.8175 140.105 77.2104C141.015 79.4406 141.712 82.5438 142.2 86.231L139.526 87.7876C137.862 84.8437 135.526 82.476 132.518 80.6841C129.574 78.8281 125.958 77.8999 121.67 77.8999C117.638 77.8999 113.958 78.8281 110.63 80.6841C107.303 82.476 104.647 85.0677 102.663 88.4595C100.743 91.8515 99.7827 95.8842 99.7827 100.556C99.7828 105.164 100.743 109.228 102.663 112.748C104.583 116.204 107.174 118.892 110.438 120.812C111.341 121.333 112.275 121.78 113.239 122.16C114.115 123.318 115.014 124.446 115.921 125.514C118.401 128.433 120.994 130.978 123.393 132.535C125.713 134.04 128.273 134.878 130.324 133.468C131.285 132.807 132.068 131.674 132.719 130.333C133.381 128.969 133.96 127.28 134.459 125.384C135.013 123.285 135.476 120.897 135.848 118.356C136.924 117.294 137.863 116.129 138.663 114.86C139.751 113.132 140.583 111.244 141.159 109.196H136.756C136.967 105.452 136.993 101.69 136.819 98.2515H143.018C143.107 103.368 142.929 108.811 142.499 114.118C142.018 120.044 141.226 125.779 140.159 130.685C138.847 131.545 137.453 132.319 135.974 133.003C131.686 134.987 126.79 135.98 121.287 135.98C120.338 135.98 119.401 135.949 118.478 135.891C117.63 134.977 116.778 134.017 115.929 133.018C108.617 124.409 101.7 113.245 98.7905 106.119C95.9071 99.0561 95.8253 93.1724 97.478 88.3442C99.1354 83.503 102.577 79.6048 106.947 76.6021C111.349 73.5771 118.379 70.2992 124.973 69.5474ZM121.67 65.6118C126.278 65.6118 130.406 66.2518 134.054 67.5317C137.766 68.8117 141.03 70.6037 143.846 72.9077C146.183 74.7251 148.246 76.8374 150.035 79.2446C150.132 79.9839 150.224 80.74 150.308 81.5122L144.069 85.1431C143.572 81.6931 142.877 78.7077 141.958 76.4546C140.385 72.6026 137.861 70.1428 134.793 68.7729C131.754 67.4157 128.256 67.1599 124.747 67.5601C117.742 68.3587 110.405 71.7996 105.814 74.9546C101.191 78.1316 97.4168 82.3471 95.5854 87.6968C93.7495 93.06 93.9064 99.4467 96.939 106.875C99.9456 114.239 106.988 125.582 114.405 134.313C114.775 134.749 115.147 135.178 115.52 135.601C112.939 135.253 110.466 134.664 108.099 133.834C100.84 124.022 94.5457 113.305 91.5063 105.861C88.0661 97.4344 87.5888 90.2335 89.0952 84.1528C90.832 80.7345 93.0497 77.7534 95.7505 75.2114C99.0144 72.1396 102.854 69.7719 107.27 68.1079C111.686 66.4439 116.486 65.6118 121.67 65.6118ZM16.8198 134.156H16.6782L16.7446 134.015C16.7695 134.062 16.7949 134.109 16.8198 134.156ZM20.2114 126.779C21.4482 129.196 22.7373 131.657 24.0767 134.156H19.0864C18.6598 133.356 18.2376 132.561 17.8208 131.769L20.2114 126.779ZM23.7397 119.414C26.0398 124.132 28.5851 129.065 31.3442 134.156H26.3481C24.5776 130.871 22.8921 127.651 21.2993 124.508L23.7397 119.414ZM54.0327 69.854C53.2171 80.4633 55.1168 92.3599 60.5171 105.587C63.8228 113.684 68.9942 123.63 75.3237 134.156H70.2446C68.4485 131.118 66.7416 128.134 65.1431 125.224L62.2056 118.892H61.7739C59.8064 115.075 58.0541 111.438 56.5591 108.043H59.0962L50.7583 88.7476L50.2437 89.9272C48.4179 82.603 47.6375 75.7279 47.7534 69.2886L50.7583 63.02L54.0327 69.854ZM62.6841 87.9136C63.5524 93.5496 65.2209 99.5249 67.8013 105.845C71.0394 113.777 76.3183 123.732 82.7759 134.156H77.6597C71.0952 123.33 65.7403 113.09 62.3687 104.832C57.6908 93.3737 55.7134 83.0022 55.8579 73.6646L62.6841 87.9136ZM167.332 98.9517C167.226 106.247 166.871 113.714 166.276 121.049C165.916 125.492 165.467 129.883 164.936 134.156H162.351L167.332 98.9517ZM174.462 66.8784C174.649 69.0387 174.811 71.2556 174.946 73.521C175.861 88.9109 175.575 106.435 174.203 123.359C173.908 126.996 173.559 130.604 173.166 134.156H166.952C167.473 129.928 167.915 125.591 168.27 121.21C169.241 109.235 169.58 96.9052 169.233 85.519L172.335 63.5962L174.462 66.8784ZM183.473 80.7798C183.625 87.1672 183.617 93.7616 183.455 100.435L180.975 96.4282L176.655 134.156H175.178C175.564 130.654 175.906 127.1 176.196 123.521C177.574 106.516 177.864 88.898 176.943 73.4028C176.883 72.3936 176.817 71.3931 176.747 70.4019L183.473 80.7798ZM232.143 88.6997C231.909 103.712 231.22 119.025 230.1 134.156H224.271L224.11 132.753C225.74 110.888 226.401 88.6003 226.017 67.5659L228.591 63.5962L232.143 88.6997ZM238.322 132.37C238.28 132.965 238.238 133.561 238.196 134.156H232.105C232.923 123.079 233.511 111.905 233.858 100.821L238.322 132.37ZM27.3608 111.853C29.6191 116.824 32.225 122.117 35.1274 127.646L32.8159 132.672C29.9015 127.277 27.2313 122.066 24.8442 117.107L27.3608 111.853ZM86.3003 91.9351C86.4361 96.4238 87.4905 101.316 89.6548 106.617C92.4935 113.57 98.0509 123.209 104.574 132.377C101.172 130.754 98.1347 128.659 95.4624 126.091C95.1349 125.77 94.8162 125.442 94.5034 125.108C91.4797 120.199 88.8362 115.453 86.7544 111.203C85.841 107.874 85.3824 104.325 85.3823 100.556C85.3823 97.5298 85.6895 94.6561 86.3003 91.9351ZM133.5 120.362C133.214 121.977 132.889 123.495 132.526 124.875C132.045 126.698 131.505 128.252 130.919 129.458C130.323 130.687 129.728 131.451 129.191 131.82C128.244 132.47 126.722 132.31 124.482 130.857C122.322 129.455 119.876 127.08 117.446 124.219C117.152 123.874 116.859 123.522 116.568 123.165C118.193 123.515 119.894 123.692 121.67 123.692C124.422 123.692 126.886 123.34 129.062 122.636C130.729 122.048 132.208 121.288 133.5 120.362ZM83.8306 132.052C77.7217 122.099 72.7373 112.644 69.6528 105.089C68.3377 101.868 67.2676 98.7455 66.4243 95.7202L83.8306 132.052ZM151.15 98.2515C151.162 104.187 150.915 110.375 150.424 116.428C150.328 117.615 150.222 118.797 150.107 119.97C149.131 121.691 148.004 123.316 146.726 124.844C145.47 126.351 144.08 127.719 142.556 128.946C143.424 124.448 144.075 119.422 144.492 114.28C144.926 108.927 145.108 103.43 145.019 98.2515H151.15ZM207.782 95.6968C207.633 102.898 207.353 110.175 206.945 117.442L200.463 127.916L200.204 127.497C200.757 120.189 201.169 112.817 201.436 105.486L207.782 95.6968ZM31.3804 104.56C33.3484 109.38 35.7599 114.639 38.5454 120.218L36.1841 125.349C33.289 119.778 30.7068 114.462 28.4917 109.493L31.1401 103.964C31.2201 104.162 31.2993 104.362 31.3804 104.56ZM199.438 105.407C199.206 111.795 198.861 118.216 198.41 124.598L192.9 115.696C193.262 109.253 193.501 102.799 193.615 96.4233L199.438 105.407ZM224.064 70.5786C224.288 87.1656 223.871 104.483 222.846 121.715L219.951 96.4282L217.748 99.9868C217.941 93.2316 218.031 86.5205 218.014 79.9116L224.064 70.5786ZM35.2134 95.4614C36.221 98.5235 37.3685 101.642 38.6646 104.817C40.4359 109.156 42.5988 113.882 45.0933 118.892H40.1187C37.447 113.519 35.1302 108.454 33.2319 103.804C32.9183 103.036 32.6145 102.27 32.3169 101.508L35.2134 95.4614ZM39.8403 85.8042C41.0124 91.101 42.6693 96.5987 44.853 102.3L42.3511 108.043H47.1997C48.6763 111.452 50.3878 115.086 52.3042 118.892H47.3286C44.6674 113.595 42.3734 108.61 40.5161 104.061C38.9529 100.232 37.6097 96.4898 36.4722 92.8345L39.8403 85.8042ZM54.3765 108.043C55.8464 111.434 57.5732 115.072 59.522 118.892H54.5454C52.6121 115.089 50.8813 111.455 49.3823 108.043H54.3765ZM154.982 98.2515C155.174 103.371 154.567 108.204 153.159 112.748C152.978 113.357 152.781 113.957 152.572 114.548C152.963 109.102 153.161 103.579 153.15 98.2515H154.982ZM216.015 82.9956C215.999 89.7185 215.872 96.5382 215.639 103.394L209.134 113.904C209.494 106.747 209.731 99.5927 209.839 92.5229L216.015 82.9956ZM191.66 93.4077C191.586 99.78 191.383 106.246 191.056 112.716L185.371 103.531C185.577 96.9109 185.635 90.3474 185.538 83.9624L191.66 93.4077ZM126.144 98.2515C126.438 99.3078 126.649 100.772 126.751 102.498C126.874 104.56 126.842 106.907 126.669 109.196H121.862V98.2515H126.144ZM134.816 98.2515C134.994 101.673 134.964 105.442 134.75 109.196H128.673C128.842 106.877 128.873 104.497 128.748 102.379C128.658 100.865 128.485 99.4387 128.209 98.2515H134.816ZM45.7974 73.3706C46.0364 79.5227 47.0543 86.0252 48.9546 92.8843L46.0015 99.6636C43.8699 93.8224 42.3073 88.2137 41.2642 82.8325L45.7974 73.3706Z" fill="#008236"/>
<path d="M124.973 69.5474L124.86 68.5538L124.86 68.5538L124.973 69.5474ZM133.978 70.5991L134.386 69.6861L134.386 69.686L133.978 70.5991ZM140.105 77.2104L141.031 76.8325L141.031 76.8325L140.105 77.2104ZM142.2 86.231L142.703 87.0952L143.278 86.7601L143.191 86.1L142.2 86.231ZM139.526 87.7876L138.655 88.2797L139.154 89.1614L140.029 88.6518L139.526 87.7876ZM132.518 80.6841L131.985 81.53L131.995 81.5367L132.006 81.5432L132.518 80.6841ZM121.67 77.8999L121.67 76.8999H121.67V77.8999ZM110.63 80.6841L111.104 81.5646L111.111 81.561L111.117 81.5574L110.63 80.6841ZM102.663 88.4595L101.799 87.9546L101.796 87.9607L101.792 87.9669L102.663 88.4595ZM99.7827 100.556L98.7827 100.556L98.7827 100.556L99.7827 100.556ZM102.663 112.748L101.785 113.226L101.788 113.233L102.663 112.748ZM110.438 120.812L109.931 121.674L109.938 121.678L110.438 120.812ZM113.239 122.16L114.036 121.557L113.867 121.332L113.605 121.229L113.239 122.16ZM115.921 125.514L115.159 126.162L115.159 126.162L115.921 125.514ZM123.393 132.535L122.849 133.374L122.849 133.374L123.393 132.535ZM130.324 133.468L130.89 134.292L130.89 134.292L130.324 133.468ZM132.719 130.333L133.619 130.769L133.619 130.769L132.719 130.333ZM134.459 125.384L135.426 125.639L135.426 125.639L134.459 125.384ZM135.848 118.356L135.145 117.644L134.907 117.88L134.859 118.211L135.848 118.356ZM138.663 114.86L139.509 115.393L139.509 115.393L138.663 114.86ZM141.159 109.196L142.121 109.467L142.479 108.196H141.159V109.196ZM136.756 109.196L135.758 109.14L135.698 110.196H136.756V109.196ZM136.819 98.2515V97.2515H135.767L135.82 98.3021L136.819 98.2515ZM143.018 98.2515L144.018 98.2341L144.001 97.2515H143.018V98.2515ZM142.499 114.118L143.495 114.198L143.495 114.198L142.499 114.118ZM140.159 130.685L140.707 131.521L141.049 131.297L141.136 130.898L140.159 130.685ZM135.974 133.003L136.394 133.911L136.394 133.911L135.974 133.003ZM121.287 135.98L121.287 136.98L121.287 136.98L121.287 135.98ZM118.478 135.891L117.745 136.571L118.017 136.864L118.415 136.889L118.478 135.891ZM115.929 133.018L115.167 133.665L115.167 133.665L115.929 133.018ZM98.7905 106.119L97.8647 106.497L97.8647 106.497L98.7905 106.119ZM97.478 88.3442L96.5319 88.0203L96.5319 88.0204L97.478 88.3442ZM106.947 76.6021L106.38 75.7779L106.38 75.7779L106.947 76.6021ZM121.67 65.6118L121.67 64.6118H121.67V65.6118ZM134.054 67.5317L133.723 68.4754L133.728 68.4771L134.054 67.5317ZM143.846 72.9077L143.213 73.6817L143.223 73.6895L143.232 73.6971L143.846 72.9077ZM150.035 79.2446L151.026 79.1143L150.992 78.8567L150.837 78.6481L150.035 79.2446ZM150.308 81.5122L150.811 82.3765L151.373 82.0496L151.302 81.4036L150.308 81.5122ZM144.069 85.1431L143.079 85.2856L143.29 86.7531L144.572 86.0074L144.069 85.1431ZM141.958 76.4546L142.883 76.0766L142.883 76.0766L141.958 76.4546ZM134.793 68.7729L135.201 67.8599L135.201 67.8599L134.793 68.7729ZM124.747 67.5601L124.633 66.5665L124.633 66.5665L124.747 67.5601ZM105.814 74.9546L105.248 74.1304L105.248 74.1304L105.814 74.9546ZM95.5854 87.6968L94.6393 87.3729L94.6393 87.3729L95.5854 87.6968ZM96.939 106.875L96.0132 107.252L96.0132 107.253L96.939 106.875ZM114.405 134.313L113.643 134.96L113.643 134.96L114.405 134.313ZM115.52 135.601L115.386 136.592L118.04 136.95L116.271 134.94L115.52 135.601ZM108.099 133.834L107.295 134.429L107.478 134.677L107.769 134.778L108.099 133.834ZM91.5063 105.861L90.5805 106.239L90.5805 106.239L91.5063 105.861ZM89.0952 84.1528L88.2037 83.6999L88.152 83.8016L88.1246 83.9124L89.0952 84.1528ZM95.7505 75.2114L95.0651 74.4832L95.0651 74.4832L95.7505 75.2114ZM107.27 68.1079L106.917 67.1721L106.917 67.1721L107.27 68.1079ZM16.8198 134.156V135.156H18.4828L17.7031 133.687L16.8198 134.156ZM16.6782 134.156L15.774 133.729L15.1001 135.156H16.6782V134.156ZM16.7446 134.015L17.6281 133.547L16.6927 131.783L15.8404 133.588L16.7446 134.015ZM20.2114 126.779L21.1017 126.323L20.182 124.526L19.3096 126.347L20.2114 126.779ZM24.0767 134.156V135.156H25.7474L24.958 133.683L24.0767 134.156ZM19.0864 134.156L18.2042 134.627L18.4866 135.156H19.0864V134.156ZM17.8208 131.769L16.9189 131.337L16.7018 131.79L16.9359 132.235L17.8208 131.769ZM23.7397 119.414L24.6386 118.975L23.7319 117.115L22.8379 118.982L23.7397 119.414ZM31.3442 134.156V135.156H33.0236L32.2234 133.679L31.3442 134.156ZM26.3481 134.156L25.4679 134.63L25.7512 135.156H26.3481V134.156ZM21.2993 124.508L20.3974 124.076L20.1845 124.521L20.4073 124.96L21.2993 124.508ZM54.0327 69.854L55.0298 69.9307L55.0503 69.6635L54.9345 69.4219L54.0327 69.854ZM60.5171 105.587L59.5913 105.965L59.5913 105.965L60.5171 105.587ZM75.3237 134.156V135.156H77.0919L76.1807 133.64L75.3237 134.156ZM70.2446 134.156L69.3839 134.665L69.6742 135.156H70.2446V134.156ZM65.1431 125.224L64.2359 125.645L64.2502 125.676L64.2666 125.706L65.1431 125.224ZM62.2056 118.892L63.1127 118.471L62.844 117.892H62.2056V118.892ZM61.7739 118.892L60.885 119.35L61.1643 119.892H61.7739V118.892ZM56.5591 108.043V107.043H55.0259L55.6439 108.447L56.5591 108.043ZM59.0962 108.043V109.043H60.6177L60.0142 107.647L59.0962 108.043ZM50.7583 88.7476L51.6763 88.3509L50.7627 86.2367L49.8417 88.3477L50.7583 88.7476ZM50.2437 89.9272L49.2733 90.1691L49.9845 93.0221L51.1602 90.3271L50.2437 89.9272ZM47.7534 69.2886L46.8517 68.8563L46.7575 69.0528L46.7536 69.2706L47.7534 69.2886ZM50.7583 63.02L51.6601 62.5879L50.7585 60.7062L49.8566 62.5878L50.7583 63.02ZM62.6841 87.9136L63.6724 87.7613L63.6499 87.615L63.5859 87.4815L62.6841 87.9136ZM67.8013 105.845L66.8755 106.223L66.8755 106.223L67.8013 105.845ZM82.7759 134.156V135.156H84.5717L83.626 133.629L82.7759 134.156ZM77.6597 134.156L76.8046 134.674L77.0966 135.156H77.6597V134.156ZM62.3687 104.832L61.4428 105.21L61.4428 105.21L62.3687 104.832ZM55.8579 73.6646L56.7598 73.2325L54.858 73.6491L55.8579 73.6646ZM167.332 98.9517L168.331 98.9662L166.341 98.8116L167.332 98.9517ZM166.276 121.049L167.273 121.13L167.273 121.13L166.276 121.049ZM164.936 134.156V135.156H165.819L165.928 134.279L164.936 134.156ZM162.351 134.156L161.361 134.016L161.2 135.156H162.351V134.156ZM174.462 66.8784L175.459 66.7923L175.437 66.5438L175.302 66.3346L174.462 66.8784ZM174.946 73.521L175.944 73.4616L175.944 73.4616L174.946 73.521ZM174.203 123.359L175.199 123.44L175.199 123.44L174.203 123.359ZM173.166 134.156V135.156H174.061L174.159 134.266L173.166 134.156ZM166.952 134.156L165.959 134.033L165.821 135.156H166.952V134.156ZM168.27 121.21L169.267 121.291L169.267 121.291L168.27 121.21ZM169.233 85.519L168.243 85.3789L168.231 85.4638L168.233 85.5495L169.233 85.519ZM172.335 63.5962L173.175 63.0524L171.72 60.8078L171.345 63.4561L172.335 63.5962ZM183.473 80.7798L184.473 80.756L184.466 80.4732L184.312 80.2359L183.473 80.7798ZM183.455 100.435L182.604 100.961L184.373 103.819L184.454 100.459L183.455 100.435ZM180.975 96.4282L181.825 95.902L180.309 93.452L179.982 96.3145L180.975 96.4282ZM176.655 134.156V135.156H177.547L177.648 134.27L176.655 134.156ZM175.178 134.156L174.184 134.046L174.062 135.156H175.178V134.156ZM176.196 123.521L177.193 123.602L177.193 123.602L176.196 123.521ZM176.943 73.4028L177.941 73.3435L177.941 73.3435L176.943 73.4028ZM176.747 70.4019L177.586 69.858L175.749 70.4727L176.747 70.4019ZM232.143 88.6997L233.143 88.7153L233.144 88.6371L233.133 88.5596L232.143 88.6997ZM230.1 134.156V135.156H231.029L231.097 134.23L230.1 134.156ZM224.271 134.156L223.278 134.27L223.379 135.156H224.271V134.156ZM224.11 132.753L223.113 132.679L223.106 132.773L223.116 132.868L224.11 132.753ZM226.017 67.5659L225.178 67.0218L225.012 67.2784L225.017 67.5842L226.017 67.5659ZM228.591 63.5962L229.581 63.4561L229.207 60.8089L227.752 63.0521L228.591 63.5962ZM238.322 132.37L239.319 132.439L239.327 132.334L239.312 132.23L238.322 132.37ZM238.196 134.156V135.156H239.127L239.193 134.227L238.196 134.156ZM232.105 134.156L231.108 134.082L231.028 135.156H232.105V134.156ZM233.858 100.821L234.848 100.681L232.858 100.789L233.858 100.821ZM27.3608 111.853L28.2713 111.439L27.3848 109.488L26.459 111.421L27.3608 111.853ZM35.1274 127.646L36.036 128.064L36.2415 127.617L36.0128 127.181L35.1274 127.646ZM32.8159 132.672L31.9361 133.148L32.8878 134.909L33.7244 133.09L32.8159 132.672ZM24.8442 117.107L23.9424 116.675L23.7349 117.108L23.9432 117.541L24.8442 117.107ZM86.3003 91.9351L87.2998 91.9048L85.3246 91.7161L86.3003 91.9351ZM89.6548 106.617L88.729 106.995L88.729 106.995L89.6548 106.617ZM104.574 132.377L104.143 133.28L107.626 134.942L105.389 131.798L104.574 132.377ZM95.4624 126.091L94.7624 126.806L94.7696 126.812L95.4624 126.091ZM94.5034 125.108L93.652 125.632L93.7048 125.718L93.7738 125.792L94.5034 125.108ZM86.7544 111.203L85.79 111.467L85.8149 111.558L85.8563 111.642L86.7544 111.203ZM85.3823 100.556L84.3823 100.556L84.3823 100.556L85.3823 100.556ZM133.5 120.362L134.484 120.536L134.912 118.118L132.917 119.549L133.5 120.362ZM132.526 124.875L133.493 125.129L133.493 125.129L132.526 124.875ZM130.919 129.458L131.819 129.895L131.819 129.895L130.919 129.458ZM129.191 131.82L129.757 132.644L129.757 132.644L129.191 131.82ZM124.482 130.857L123.938 131.696L123.938 131.696L124.482 130.857ZM117.446 124.219L116.684 124.867L116.684 124.867L117.446 124.219ZM116.568 123.165L116.779 122.187L113.991 121.586L115.793 123.796L116.568 123.165ZM121.67 123.692L121.67 124.692L121.67 124.692L121.67 123.692ZM129.062 122.636L129.37 123.588L129.382 123.584L129.395 123.579L129.062 122.636ZM83.8306 132.052L82.9783 132.575L84.7324 131.62L83.8306 132.052ZM69.6528 105.089L68.727 105.467L68.727 105.467L69.6528 105.089ZM66.4243 95.7202L67.3262 95.2882L65.461 95.9887L66.4243 95.7202ZM151.15 98.2515L152.15 98.2494L152.148 97.2515H151.15V98.2515ZM150.424 116.428L151.421 116.509L151.421 116.509L150.424 116.428ZM150.107 119.97L150.977 120.464L151.082 120.279L151.102 120.068L150.107 119.97ZM146.726 124.844L145.959 124.203L145.958 124.204L146.726 124.844ZM142.556 128.946L141.574 128.756L141.057 131.437L143.183 129.725L142.556 128.946ZM144.492 114.28L145.488 114.361L145.488 114.361L144.492 114.28ZM145.019 98.2515V97.2515H144.002L144.019 98.2686L145.019 98.2515ZM207.782 95.6968L208.782 95.7175L208.854 92.204L206.943 95.1528L207.782 95.6968ZM206.945 117.442L207.795 117.968L207.929 117.752L207.943 117.498L206.945 117.442ZM200.463 127.916L199.613 128.442L200.464 129.815L201.314 128.442L200.463 127.916ZM200.204 127.497L199.206 127.421L199.182 127.746L199.354 128.024L200.204 127.497ZM201.436 105.486L200.597 104.942L200.447 105.174L200.437 105.449L201.436 105.486ZM31.3804 104.56L30.4546 104.938L30.4546 104.938L31.3804 104.56ZM38.5454 120.218L39.4538 120.636L39.6543 120.201L39.4401 119.772L38.5454 120.218ZM36.1841 125.349L35.2968 125.81L36.2386 127.623L37.0925 125.767L36.1841 125.349ZM28.4917 109.493L27.5898 109.061L27.3901 109.478L27.5783 109.9L28.4917 109.493ZM31.1401 103.964L32.0674 103.59L31.2182 101.487L30.2383 103.532L31.1401 103.964ZM199.438 105.407L200.437 105.443L200.449 105.128L200.277 104.863L199.438 105.407ZM198.41 124.598L197.559 125.124L199.189 127.757L199.407 124.669L198.41 124.598ZM192.9 115.696L191.901 115.64L191.884 115.954L192.05 116.222L192.9 115.696ZM193.615 96.4233L194.454 95.8794L192.673 93.1323L192.615 96.4056L193.615 96.4233ZM224.064 70.5786L225.064 70.5651L225.019 67.2663L223.225 70.0347L224.064 70.5786ZM222.846 121.715L221.853 121.829L223.844 121.775L222.846 121.715ZM219.951 96.4282L220.944 96.3145L220.617 93.453L219.1 95.9018L219.951 96.4282ZM217.748 99.9868L216.748 99.9581L216.641 103.673L218.598 100.513L217.748 99.9868ZM218.014 79.9116L217.175 79.3677L217.013 79.617L217.014 79.9142L218.014 79.9116ZM35.2134 95.4614L36.1633 95.1488L35.3859 92.7865L34.3115 95.0294L35.2134 95.4614ZM38.6646 104.817L37.7387 105.195L37.7387 105.195L38.6646 104.817ZM45.0933 118.892V119.892H46.7082L45.9885 118.446L45.0933 118.892ZM40.1187 118.892L39.2232 119.337L39.4991 119.892H40.1187V118.892ZM33.2319 103.804L32.3061 104.182L32.3061 104.182L33.2319 103.804ZM32.3169 101.508L31.415 101.076L31.2275 101.468L31.3854 101.872L32.3169 101.508ZM39.8403 85.8042L40.8167 85.5882L40.1906 82.7586L38.9385 85.3721L39.8403 85.8042ZM44.853 102.3L45.7698 102.7L45.9332 102.325L45.7869 101.943L44.853 102.3ZM42.3511 108.043L41.4343 107.644L40.8247 109.043H42.3511V108.043ZM47.1997 108.043L48.1173 107.646L47.8563 107.043H47.1997V108.043ZM52.3042 118.892V119.892H53.9272L53.1974 118.442L52.3042 118.892ZM47.3286 118.892L46.435 119.341L46.7119 119.892H47.3286V118.892ZM40.5161 104.061L39.5903 104.439L39.5903 104.439L40.5161 104.061ZM36.4722 92.8345L35.5703 92.4024L35.4006 92.7566L35.5173 93.1316L36.4722 92.8345ZM54.3765 108.043L55.2939 107.646L55.0328 107.043H54.3765V108.043ZM59.522 118.892V119.892H61.1547L60.4128 118.438L59.522 118.892ZM54.5454 118.892L53.654 119.345L53.932 119.892H54.5454V118.892ZM49.3823 108.043V107.043H47.8506L48.4668 108.446L49.3823 108.043ZM154.982 98.2515L155.981 98.214L155.945 97.2515H154.982V98.2515ZM153.159 112.748L152.203 112.452L152.2 112.464L153.159 112.748ZM152.572 114.548L151.574 114.477L153.515 114.882L152.572 114.548ZM153.15 98.2515V97.2515H152.148L152.15 98.2535L153.15 98.2515ZM216.015 82.9956L217.015 82.998L217.023 79.6018L215.176 82.4517L216.015 82.9956ZM215.639 103.394L216.489 103.92L216.63 103.694L216.639 103.428L215.639 103.394ZM209.134 113.904L208.136 113.854L209.985 114.43L209.134 113.904ZM209.839 92.5229L209 91.979L208.844 92.2202L208.839 92.5077L209.839 92.5229ZM191.66 93.4077L192.66 93.4193L192.663 93.1173L192.499 92.8638L191.66 93.4077ZM191.056 112.716L190.206 113.243L191.893 115.969L192.055 112.767L191.056 112.716ZM185.371 103.531L184.371 103.5L184.362 103.801L184.52 104.057L185.371 103.531ZM185.538 83.9624L186.377 83.4185L184.484 80.4991L184.538 83.9777L185.538 83.9624ZM126.144 98.2515L127.107 97.9833L126.904 97.2515H126.144V98.2515ZM126.751 102.498L127.75 102.438L127.75 102.438L126.751 102.498ZM126.669 109.196V110.196H127.597L127.667 109.271L126.669 109.196ZM121.862 109.196H120.862V110.196H121.862V109.196ZM121.862 98.2515V97.2515H120.862V98.2515H121.862ZM134.816 98.2515L135.815 98.1996L135.765 97.2515H134.816V98.2515ZM134.75 109.196V110.196H135.694L135.748 109.253L134.75 109.196ZM128.673 109.196L127.676 109.123L127.598 110.196H128.673V109.196ZM128.748 102.379L129.746 102.32L129.746 102.32L128.748 102.379ZM128.209 98.2515V97.2515H126.951L127.235 98.4776L128.209 98.2515ZM45.7974 73.3706L46.7966 73.3318L44.8955 72.9385L45.7974 73.3706ZM48.9546 92.8843L49.8714 93.2836L50.0129 92.9588L49.9183 92.6173L48.9546 92.8843ZM46.0015 99.6636L45.0621 100.006L45.9194 102.356L46.9183 100.063L46.0015 99.6636ZM41.2642 82.8325L40.3623 82.4004L40.2196 82.6984L40.2824 83.0228L41.2642 82.8325ZM124.973 69.5474L125.086 70.5409C128.265 70.1785 131.179 70.444 133.57 71.5122L133.978 70.5991L134.386 69.686C131.563 68.4253 128.26 68.1662 124.86 68.5538L124.973 69.5474ZM133.978 70.5991L133.57 71.5122C135.906 72.5553 137.888 74.4249 139.179 77.5884L140.105 77.2104L141.031 76.8325C139.552 73.21 137.209 70.9469 134.386 69.6861L133.978 70.5991ZM140.105 77.2104L139.179 77.5884C140.043 79.7034 140.726 82.7097 141.208 86.362L142.2 86.231L143.191 86.1C142.699 82.3779 141.988 79.1777 141.031 76.8325L140.105 77.2104ZM142.2 86.231L141.697 85.3667L139.023 86.9234L139.526 87.7876L140.029 88.6518L142.703 87.0952L142.2 86.231ZM139.526 87.7876L140.396 87.2955C138.644 84.1947 136.182 81.7027 133.03 79.825L132.518 80.6841L132.006 81.5432C134.87 83.2494 137.08 85.4928 138.655 88.2797L139.526 87.7876ZM132.518 80.6841L133.051 79.8382C129.914 77.8605 126.103 76.8999 121.67 76.8999L121.67 77.8999L121.67 78.8999C125.813 78.8999 129.234 79.7957 131.985 81.53L132.518 80.6841ZM121.67 77.8999V76.8999C117.478 76.8999 113.629 77.8668 110.143 79.8107L110.63 80.6841L111.117 81.5574C114.288 79.7893 117.799 78.8999 121.67 78.8999V77.8999ZM110.63 80.6841L110.156 79.8036C106.66 81.6862 103.872 84.4108 101.799 87.9546L102.663 88.4595L103.526 88.9644C105.421 85.7246 107.945 83.2659 111.104 81.5646L110.63 80.6841ZM102.663 88.4595L101.792 87.9669C99.7718 91.5364 98.7827 95.7458 98.7827 100.556H99.7827H100.783C100.783 96.0225 101.713 92.1665 103.533 88.9521L102.663 88.4595ZM99.7827 100.556L98.7827 100.556C98.7828 105.306 99.7734 109.539 101.785 113.226L102.663 112.748L103.54 112.269C101.712 108.916 100.783 105.022 100.783 100.556L99.7827 100.556ZM102.663 112.748L101.788 113.233C103.791 116.838 106.506 119.659 109.931 121.674L110.438 120.812L110.945 119.95C107.842 118.125 105.374 115.569 103.537 112.262L102.663 112.748ZM110.438 120.812L109.938 121.678C110.885 122.224 111.864 122.693 112.872 123.09L113.239 122.16L113.605 121.229C112.686 120.867 111.796 120.441 110.938 119.946L110.438 120.812ZM113.239 122.16L112.441 122.763C113.327 123.935 114.238 125.077 115.159 126.162L115.921 125.514L116.684 124.867C115.79 123.814 114.902 122.702 114.036 121.557L113.239 122.16ZM115.921 125.514L115.159 126.162C117.663 129.109 120.33 131.739 122.849 133.374L123.393 132.535L123.937 131.696C121.658 130.216 119.138 127.757 116.684 124.867L115.921 125.514ZM123.393 132.535L122.849 133.374C125.204 134.902 128.285 136.083 130.89 134.292L130.324 133.468L129.757 132.644C128.261 133.673 126.221 133.178 123.937 131.696L123.393 132.535ZM130.324 133.468L130.89 134.292C132.064 133.486 132.94 132.167 133.619 130.769L132.719 130.333L131.82 129.896C131.196 131.18 130.507 132.129 129.757 132.644L130.324 133.468ZM132.719 130.333L133.619 130.769C134.319 129.327 134.917 127.571 135.426 125.639L134.459 125.384L133.492 125.129C133.002 126.989 132.444 128.611 131.82 129.896L132.719 130.333ZM134.459 125.384L135.426 125.639C135.991 123.495 136.462 121.069 136.838 118.501L135.848 118.356L134.859 118.211C134.491 120.725 134.034 123.075 133.492 125.129L134.459 125.384ZM135.848 118.356L136.551 119.067C137.68 117.953 138.668 116.729 139.509 115.393L138.663 114.86L137.816 114.327C137.059 115.53 136.168 116.635 135.145 117.644L135.848 118.356ZM138.663 114.86L139.509 115.393C140.65 113.58 141.52 111.603 142.121 109.467L141.159 109.196L140.196 108.925C139.645 110.884 138.851 112.684 137.816 114.327L138.663 114.86ZM141.159 109.196V108.196H136.756V109.196V110.196H141.159V109.196ZM136.756 109.196L137.755 109.252C137.967 105.477 137.994 101.679 137.818 98.2009L136.819 98.2515L135.82 98.3021C135.992 101.701 135.967 105.427 135.758 109.14L136.756 109.196ZM136.819 98.2515V99.2515H143.018V98.2515V97.2515H136.819V98.2515ZM143.018 98.2515L142.018 98.2689C142.107 103.351 141.929 108.761 141.502 114.037L142.499 114.118L143.495 114.198C143.928 108.86 144.108 103.385 144.018 98.2341L143.018 98.2515ZM142.499 114.118L141.502 114.037C141.024 119.93 140.237 125.62 139.182 130.472L140.159 130.685L141.136 130.898C142.215 125.938 143.012 120.158 143.495 114.198L142.499 114.118ZM140.159 130.685L139.611 129.849C138.34 130.681 136.99 131.432 135.554 132.096L135.974 133.003L136.394 133.911C137.917 133.206 139.354 132.408 140.707 131.521L140.159 130.685ZM135.974 133.003L135.554 132.096C131.418 134.01 126.669 134.98 121.287 134.98L121.287 135.98L121.287 136.98C126.912 136.98 131.955 135.965 136.394 133.911L135.974 133.003ZM121.287 135.98V134.98C120.359 134.98 119.444 134.95 118.541 134.893L118.478 135.891L118.415 136.889C119.359 136.948 120.316 136.98 121.287 136.98V135.98ZM118.478 135.891L119.211 135.211C118.373 134.308 117.531 133.359 116.691 132.371L115.929 133.018L115.167 133.665C116.025 134.675 116.887 135.646 117.745 136.571L118.478 135.891ZM115.929 133.018L116.691 132.371C109.431 123.823 102.577 112.748 99.7163 105.741L98.7905 106.119L97.8647 106.497C100.823 113.742 107.803 124.995 115.167 133.665L115.929 133.018ZM98.7905 106.119L99.7163 105.741C96.9075 98.8608 96.863 93.2288 98.4241 88.6681L97.478 88.3442L96.5319 88.0204C94.7876 93.116 94.9067 99.2513 97.8647 106.497L98.7905 106.119ZM97.478 88.3442L98.4241 88.6681C99.9946 84.0809 103.27 80.3417 107.513 77.4262L106.947 76.6021L106.38 75.7779C101.884 78.8678 98.2763 82.925 96.5319 88.0203L97.478 88.3442ZM106.947 76.6021L107.513 77.4262C111.82 74.4663 118.698 71.2694 125.086 70.5409L124.973 69.5474L124.86 68.5538C118.061 69.329 110.877 72.6879 106.38 75.7779L106.947 76.6021ZM121.67 65.6118L121.67 66.6118C126.187 66.6118 130.2 67.2391 133.723 68.4753L134.054 67.5317L134.385 66.5881C130.613 65.2644 126.37 64.6118 121.67 64.6118L121.67 65.6118ZM134.054 67.5317L133.728 68.4771C137.337 69.7216 140.495 71.4583 143.213 73.6817L143.846 72.9077L144.479 72.1338C141.565 69.7492 138.195 67.9018 134.38 66.5864L134.054 67.5317ZM143.846 72.9077L143.232 73.6971C145.497 75.4583 147.496 77.5055 149.232 79.8411L150.035 79.2446L150.837 78.6481C148.995 76.1694 146.869 73.9919 144.46 72.1184L143.846 72.9077ZM150.035 79.2446L149.043 79.3749C149.139 80.1076 149.231 80.8565 149.314 81.6208L150.308 81.5122L151.302 81.4036C151.217 80.6235 151.124 79.8601 151.026 79.1143L150.035 79.2446ZM150.308 81.5122L149.805 80.6479L143.566 84.2788L144.069 85.1431L144.572 86.0074L150.811 82.3765L150.308 81.5122ZM144.069 85.1431L145.059 85.0005C144.556 81.5136 143.847 78.4375 142.883 76.0766L141.958 76.4546L141.032 76.8326C141.908 78.9778 142.587 81.8726 143.079 85.2856L144.069 85.1431ZM141.958 76.4546L142.883 76.0766C141.217 71.9952 138.512 69.3386 135.201 67.8599L134.793 68.7729L134.386 69.686C137.209 70.947 139.553 73.2101 141.032 76.8326L141.958 76.4546ZM134.793 68.7729L135.201 67.8599C131.947 66.4063 128.254 66.1537 124.633 66.5665L124.747 67.5601L124.86 68.5536C128.259 68.1661 131.562 68.4252 134.386 69.686L134.793 68.7729ZM124.747 67.5601L124.633 66.5665C117.424 67.3885 109.933 70.9105 105.248 74.1304L105.814 74.9546L106.38 75.7788C110.877 72.6887 118.061 69.3289 124.86 68.5536L124.747 67.5601ZM105.814 74.9546L105.248 74.1304C100.498 77.3945 96.5577 81.7689 94.6393 87.3729L95.5854 87.6968L96.5315 88.0207C98.2759 82.9252 101.884 78.8687 106.38 75.7787L105.814 74.9546ZM95.5854 87.6968L94.6393 87.3729C92.7118 93.0038 92.9061 99.6422 96.0132 107.252L96.939 106.875L97.8648 106.497C94.9068 99.2512 94.7873 93.1162 96.5316 88.0206L95.5854 87.6968ZM96.939 106.875L96.0132 107.253C99.0683 114.735 106.174 126.168 113.643 134.96L114.405 134.313L115.167 133.666C107.803 124.996 100.823 113.742 97.8648 106.497L96.939 106.875ZM114.405 134.313L113.643 134.96C114.017 135.401 114.394 135.835 114.77 136.262L115.52 135.601L116.271 134.94C115.901 134.521 115.533 134.096 115.167 133.666L114.405 134.313ZM115.52 135.601L115.654 134.61C113.138 134.271 110.731 133.697 108.43 132.891L108.099 133.834L107.769 134.778C110.201 135.63 112.741 136.235 115.386 136.592L115.52 135.601ZM108.099 133.834L108.903 133.24C101.674 123.469 95.4299 112.825 92.4322 105.483L91.5063 105.861L90.5805 106.239C93.6615 113.785 100.006 124.576 107.295 134.429L108.099 133.834ZM91.5063 105.861L92.4322 105.483C89.057 97.2159 88.6193 90.2328 90.0659 84.3933L89.0952 84.1528L88.1246 83.9124C86.5584 90.2342 87.0752 97.653 90.5805 106.239L91.5063 105.861ZM89.0952 84.1528L89.9867 84.6058C91.6731 81.2867 93.8222 78.3996 96.4359 75.9396L95.7505 75.2114L95.0651 74.4832C92.2772 77.1072 89.9909 80.1824 88.2037 83.6999L89.0952 84.1528ZM95.7505 75.2114L96.4358 75.9396C99.5985 72.963 103.324 70.6636 107.623 69.0437L107.27 68.1079L106.917 67.1721C102.385 68.8801 98.4302 71.3162 95.0651 74.4832L95.7505 75.2114ZM107.27 68.1079L107.623 69.0437C111.915 67.4261 116.595 66.6118 121.67 66.6118V65.6118V64.6118C116.378 64.6118 111.457 65.4617 106.917 67.1721L107.27 68.1079ZM16.8198 134.156V133.156H16.6782V134.156V135.156H16.8198V134.156ZM16.6782 134.156L17.5825 134.583L17.6489 134.442L16.7446 134.015L15.8404 133.588L15.774 133.729L16.6782 134.156ZM16.7446 134.015L15.8612 134.484C15.875 134.51 15.8887 134.535 15.9011 134.558C15.9139 134.582 15.9254 134.604 15.9366 134.625L16.8198 134.156L17.7031 133.687C17.6893 133.661 17.6757 133.635 17.6633 133.612C17.6506 133.589 17.6392 133.568 17.6281 133.547L16.7446 134.015ZM20.2114 126.779L19.3212 127.234C20.5609 129.657 21.853 132.124 23.1953 134.628L24.0767 134.156L24.958 133.683C23.6216 131.19 22.3355 128.735 21.1017 126.323L20.2114 126.779ZM24.0767 134.156V133.156H19.0864V134.156V135.156H24.0767V134.156ZM19.0864 134.156L19.9687 133.685C19.5427 132.887 19.1214 132.093 18.7057 131.303L17.8208 131.769L16.9359 132.235C17.3538 133.029 17.7768 133.826 18.2042 134.627L19.0864 134.156ZM17.8208 131.769L18.7227 132.201L21.1133 127.211L20.2114 126.779L19.3096 126.347L16.9189 131.337L17.8208 131.769ZM23.7397 119.414L22.8409 119.852C25.1479 124.584 27.6998 129.53 30.4651 134.632L31.3442 134.156L32.2234 133.679C29.4703 128.599 26.9318 123.679 24.6386 118.975L23.7397 119.414ZM31.3442 134.156V133.156H26.3481V134.156V135.156H31.3442V134.156ZM26.3481 134.156L27.2284 133.681C25.4616 130.404 23.78 127.191 22.1913 124.056L21.2993 124.508L20.4073 124.96C22.0041 128.111 23.6936 131.339 25.4679 134.63L26.3481 134.156ZM21.2993 124.508L22.2012 124.94L24.6416 119.846L23.7397 119.414L22.8379 118.982L20.3974 124.076L21.2993 124.508ZM54.0327 69.854L53.0357 69.7774C52.2062 80.5663 54.1424 92.6188 59.5913 105.965L60.5171 105.587L61.4429 105.209C56.0913 92.1011 54.228 80.3603 55.0298 69.9307L54.0327 69.854ZM60.5171 105.587L59.5913 105.965C62.9228 114.126 68.1213 124.119 74.4667 134.671L75.3237 134.156L76.1807 133.64C69.8671 123.141 64.7228 113.243 61.4429 105.209L60.5171 105.587ZM75.3237 134.156V133.156H70.2446V134.156V135.156H75.3237V134.156ZM70.2446 134.156L71.1054 133.647C69.314 130.617 67.6124 127.642 66.0195 124.743L65.1431 125.224L64.2666 125.706C65.8708 128.626 67.583 131.619 69.3839 134.665L70.2446 134.156ZM65.1431 125.224L66.0502 124.803L63.1127 118.471L62.2056 118.892L61.2984 119.313L64.2359 125.645L65.1431 125.224ZM62.2056 118.892V117.892H61.7739V118.892V119.892H62.2056V118.892ZM61.7739 118.892L62.6628 118.434C60.7027 114.631 58.9596 111.013 57.4742 107.64L56.5591 108.043L55.6439 108.447C57.1487 111.863 58.91 115.518 60.885 119.35L61.7739 118.892ZM56.5591 108.043V109.043H59.0962V108.043V107.043H56.5591V108.043ZM59.0962 108.043L60.0142 107.647L51.6763 88.3509L50.7583 88.7476L49.8403 89.1442L58.1782 108.44L59.0962 108.043ZM50.7583 88.7476L49.8417 88.3477L49.3271 89.5274L50.2437 89.9272L51.1602 90.3271L51.6749 89.1474L50.7583 88.7476ZM50.2437 89.9272L51.214 89.6854C49.4076 82.4392 48.639 75.6516 48.7533 69.3066L47.7534 69.2886L46.7536 69.2706C46.636 75.8043 47.4281 82.7668 49.2733 90.1691L50.2437 89.9272ZM47.7534 69.2886L48.6552 69.7208L51.66 63.4523L50.7583 63.02L49.8566 62.5878L46.8517 68.8563L47.7534 69.2886ZM50.7583 63.02L49.8565 63.4521L53.1309 70.2861L54.0327 69.854L54.9345 69.4219L51.6601 62.5879L50.7583 63.02ZM62.6841 87.9136L61.6957 88.0658C62.5773 93.7874 64.2688 99.8384 66.8755 106.223L67.8013 105.845L68.7271 105.467C66.173 99.2114 64.5276 93.3117 63.6724 87.7613L62.6841 87.9136ZM67.8013 105.845L66.8755 106.223C70.1419 114.224 75.451 124.231 81.9258 134.682L82.7759 134.156L83.626 133.629C77.1857 123.233 71.937 113.33 68.7271 105.467L67.8013 105.845ZM82.7759 134.156V133.156H77.6597V134.156V135.156H82.7759V134.156ZM77.6597 134.156L78.5147 133.637C71.9665 122.839 66.6396 112.647 63.2945 104.454L62.3687 104.832L61.4428 105.21C64.841 113.533 70.224 123.822 76.8046 134.674L77.6597 134.156ZM62.3687 104.832L63.2945 104.454C58.6593 93.1002 56.7157 82.8625 56.8578 73.68L55.8579 73.6646L54.858 73.6491C54.7111 83.1418 56.7223 93.6471 61.4428 105.21L62.3687 104.832ZM55.8579 73.6646L54.9561 74.0966L61.7822 88.3456L62.6841 87.9136L63.5859 87.4815L56.7598 73.2325L55.8579 73.6646ZM167.332 98.9517L166.332 98.9371C166.226 106.21 165.872 113.655 165.279 120.969L166.276 121.049L167.273 121.13C167.869 113.772 168.225 106.283 168.331 98.9662L167.332 98.9517ZM166.276 121.049L165.279 120.969C164.92 125.397 164.473 129.774 163.944 134.032L164.936 134.156L165.928 134.279C166.461 129.991 166.911 125.586 167.273 121.13L166.276 121.049ZM164.936 134.156V133.156H162.351V134.156V135.156H164.936V134.156ZM162.351 134.156L163.341 134.296L168.322 99.0917L167.332 98.9517L166.341 98.8116L161.361 134.016L162.351 134.156ZM174.462 66.8784L173.466 66.9646C173.652 69.1158 173.813 71.3238 173.948 73.5804L174.946 73.521L175.944 73.4616C175.809 71.1875 175.646 68.9616 175.459 66.7923L174.462 66.8784ZM174.946 73.521L173.948 73.5804C174.86 88.9177 174.575 106.394 173.206 123.278L174.203 123.359L175.199 123.44C176.575 106.475 176.862 88.9041 175.944 73.4616L174.946 73.521ZM174.203 123.359L173.206 123.278C172.912 126.905 172.564 130.503 172.172 134.046L173.166 134.156L174.159 134.266C174.554 130.705 174.904 127.087 175.199 123.44L174.203 123.359ZM173.166 134.156V133.156H166.952V134.156V135.156H173.166V134.156ZM166.952 134.156L167.944 134.278C168.468 130.036 168.91 125.686 169.267 121.291L168.27 121.21L167.273 121.13C166.919 125.497 166.479 129.82 165.959 134.033L166.952 134.156ZM168.27 121.21L169.267 121.291C170.24 109.282 170.581 96.9144 170.232 85.4886L169.233 85.519L168.233 85.5495C168.579 96.8961 168.241 109.189 167.273 121.13L168.27 121.21ZM169.233 85.519L170.223 85.6592L173.326 63.7363L172.335 63.5962L171.345 63.4561L168.243 85.3789L169.233 85.519ZM172.335 63.5962L171.496 64.14L173.623 67.4222L174.462 66.8784L175.302 66.3346L173.175 63.0524L172.335 63.5962ZM183.473 80.7798L182.473 80.8036C182.625 87.174 182.617 93.7523 182.455 100.411L183.455 100.435L184.454 100.459C184.617 93.7709 184.625 87.1605 184.473 80.756L183.473 80.7798ZM183.455 100.435L184.305 99.9088L181.825 95.902L180.975 96.4282L180.125 96.9544L182.604 100.961L183.455 100.435ZM180.975 96.4282L179.982 96.3145L175.661 134.042L176.655 134.156L177.648 134.27L181.969 96.542L180.975 96.4282ZM176.655 134.156V133.156H175.178V134.156V135.156H176.655V134.156ZM175.178 134.156L176.172 134.265C176.559 130.754 176.902 127.191 177.193 123.602L176.196 123.521L175.199 123.44C174.91 127.01 174.569 130.553 174.184 134.046L175.178 134.156ZM176.196 123.521L177.193 123.602C178.574 106.557 178.866 88.8912 177.941 73.3435L176.943 73.4028L175.945 73.4622C176.863 88.9047 176.574 106.476 175.199 123.44L176.196 123.521ZM176.943 73.4028L177.941 73.3435C177.881 72.3301 177.815 71.3257 177.744 70.331L176.747 70.4019L175.749 70.4727C175.819 71.4605 175.885 72.4572 175.945 73.4622L176.943 73.4028ZM176.747 70.4019L175.907 70.9458L182.634 81.3237L183.473 80.7798L184.312 80.2359L177.586 69.858L176.747 70.4019ZM232.143 88.6997L231.143 88.6841C230.909 103.677 230.222 118.97 229.103 134.082L230.1 134.156L231.097 134.23C232.219 119.079 232.908 103.747 233.143 88.7153L232.143 88.6997ZM230.1 134.156V133.156H224.271V134.156V135.156H230.1V134.156ZM224.271 134.156L225.264 134.042L225.103 132.639L224.11 132.753L223.116 132.868L223.278 134.27L224.271 134.156ZM224.11 132.753L225.107 132.828C226.74 110.933 227.401 88.6146 227.017 67.5477L226.017 67.5659L225.017 67.5842C225.4 88.586 224.741 110.843 223.113 132.679L224.11 132.753ZM226.017 67.5659L226.856 68.11L229.43 64.1403L228.591 63.5962L227.752 63.0521L225.178 67.0218L226.017 67.5659ZM228.591 63.5962L227.601 63.7363L231.153 88.8398L232.143 88.6997L233.133 88.5596L229.581 63.4561L228.591 63.5962ZM238.322 132.37L237.324 132.3C237.283 132.895 237.241 133.49 237.198 134.084L238.196 134.156L239.193 134.227C239.236 133.631 239.278 133.035 239.319 132.439L238.322 132.37ZM238.196 134.156V133.156H232.105V134.156V135.156H238.196V134.156ZM232.105 134.156L233.102 134.229C233.921 123.139 234.51 111.95 234.857 100.852L233.858 100.821L232.858 100.789C232.511 111.859 231.925 123.019 231.108 134.082L232.105 134.156ZM233.858 100.821L232.868 100.961L237.332 132.51L238.322 132.37L239.312 132.23L234.848 100.681L233.858 100.821ZM27.3608 111.853L26.4504 112.267C28.7177 117.257 31.3322 122.568 34.242 128.111L35.1274 127.646L36.0128 127.181C33.1178 121.667 30.5206 116.39 28.2713 111.439L27.3608 111.853ZM35.1274 127.646L34.2189 127.228L31.9074 132.255L32.8159 132.672L33.7244 133.09L36.036 128.064L35.1274 127.646ZM32.8159 132.672L33.6957 132.197C30.7878 126.814 28.1248 121.617 25.7453 116.673L24.8442 117.107L23.9432 117.541C26.3378 122.516 29.0152 127.741 31.9361 133.148L32.8159 132.672ZM24.8442 117.107L25.7461 117.539L28.2627 112.285L27.3608 111.853L26.459 111.421L23.9424 116.675L24.8442 117.107ZM86.3003 91.9351L85.3008 91.9653C85.4407 96.59 86.5262 101.599 88.729 106.995L89.6548 106.617L90.5806 106.239C88.4548 101.032 87.4315 96.2577 87.2998 91.9048L86.3003 91.9351ZM89.6548 106.617L88.729 106.995C91.6066 114.043 97.2096 123.752 103.759 132.957L104.574 132.377L105.389 131.798C98.8922 122.667 93.3803 113.096 90.5806 106.239L89.6548 106.617ZM104.574 132.377L105.005 131.475C101.698 129.896 98.749 127.862 96.1552 125.37L95.4624 126.091L94.7696 126.812C97.5204 129.455 100.647 131.611 104.143 133.28L104.574 132.377ZM95.4624 126.091L96.1623 125.377C95.8469 125.068 95.5382 124.75 95.233 124.424L94.5034 125.108L93.7738 125.792C94.0942 126.134 94.4229 126.473 94.7625 126.806L95.4624 126.091ZM94.5034 125.108L95.3549 124.583C92.3446 119.696 89.7175 114.979 87.6525 110.763L86.7544 111.203L85.8563 111.642C87.9549 115.928 90.6147 120.701 93.652 125.632L94.5034 125.108ZM86.7544 111.203L87.7188 110.938C86.831 107.702 86.3824 104.243 86.3823 100.556L85.3823 100.556L84.3823 100.556C84.3824 104.407 84.851 108.045 85.79 111.467L86.7544 111.203ZM85.3823 100.556H86.3823C86.3823 97.5977 86.6826 94.7978 87.276 92.1541L86.3003 91.9351L85.3246 91.7161C84.6965 94.5144 84.3823 97.4618 84.3823 100.556H85.3823ZM133.5 120.362L132.515 120.188C132.233 121.781 131.914 123.272 131.559 124.62L132.526 124.875L133.493 125.129C133.865 123.718 134.195 122.172 134.484 120.536L133.5 120.362ZM132.526 124.875L131.559 124.62C131.088 126.407 130.568 127.894 130.02 129.022L130.919 129.458L131.819 129.895C132.443 128.61 133.003 126.989 133.493 125.129L132.526 124.875ZM130.919 129.458L130.02 129.022C129.451 130.194 128.949 130.773 128.624 130.996L129.191 131.82L129.757 132.644C130.507 132.129 131.195 131.18 131.819 129.895L130.919 129.458ZM129.191 131.82L128.625 130.996C128.227 131.269 127.22 131.441 125.026 130.018L124.482 130.857L123.938 131.696C126.224 133.179 128.262 133.671 129.757 132.644L129.191 131.82ZM124.482 130.857L125.026 130.018C122.986 128.694 120.614 126.404 118.208 123.572L117.446 124.219L116.684 124.867C119.138 127.757 121.658 130.216 123.938 131.696L124.482 130.857ZM117.446 124.219L118.208 123.572C117.918 123.231 117.63 122.884 117.343 122.533L116.568 123.165L115.793 123.796C116.088 124.159 116.386 124.516 116.684 124.867L117.446 124.219ZM116.568 123.165L116.357 124.142C118.055 124.508 119.827 124.692 121.67 124.692V123.692V122.692C119.96 122.692 118.331 122.522 116.779 122.187L116.568 123.165ZM121.67 123.692L121.67 124.692C124.506 124.692 127.077 124.33 129.37 123.588L129.062 122.636L128.754 121.685C126.696 122.351 124.338 122.692 121.67 122.692L121.67 123.692ZM129.062 122.636L129.395 123.579C131.142 122.963 132.707 122.161 134.082 121.174L133.5 120.362L132.917 119.549C131.709 120.415 130.316 121.133 128.729 121.693L129.062 122.636ZM83.8306 132.052L84.6829 131.529C78.5907 121.603 73.6355 112.199 70.5786 104.711L69.6528 105.089L68.727 105.467C71.839 113.09 76.8528 122.595 82.9783 132.575L83.8306 132.052ZM69.6528 105.089L70.5786 104.711C69.2773 101.524 68.2199 98.4377 67.3876 95.4517L66.4243 95.7202L65.461 95.9887C66.3153 99.0534 67.3982 102.213 68.727 105.467L69.6528 105.089ZM66.4243 95.7202L65.5225 96.1523L82.9287 132.484L83.8306 132.052L84.7324 131.62L67.3262 95.2882L66.4243 95.7202ZM151.15 98.2515L150.15 98.2535C150.162 104.161 149.916 110.321 149.428 116.347L150.424 116.428L151.421 116.509C151.914 110.428 152.162 104.214 152.15 98.2494L151.15 98.2515ZM150.424 116.428L149.428 116.347C149.332 117.529 149.226 118.705 149.112 119.873L150.107 119.97L151.102 120.068C151.217 118.889 151.324 117.702 151.421 116.509L150.424 116.428ZM150.107 119.97L149.237 119.477C148.29 121.145 147.198 122.721 145.959 124.203L146.726 124.844L147.493 125.486C148.81 123.912 149.971 122.237 150.977 120.464L150.107 119.97ZM146.726 124.844L145.958 124.204C144.744 125.661 143.401 126.981 141.929 128.167L142.556 128.946L143.183 129.725C144.759 128.456 146.196 127.042 147.494 125.484L146.726 124.844ZM142.556 128.946L143.538 129.135C144.414 124.595 145.069 119.532 145.488 114.361L144.492 114.28L143.495 114.199C143.08 119.312 142.434 124.301 141.574 128.756L142.556 128.946ZM144.492 114.28L145.488 114.361C145.925 108.976 146.108 103.447 146.019 98.2343L145.019 98.2515L144.019 98.2686C144.107 103.413 143.926 108.877 143.495 114.199L144.492 114.28ZM145.019 98.2515V99.2515H151.15V98.2515V97.2515H145.019V98.2515ZM207.782 95.6968L206.782 95.6761C206.633 102.865 206.354 110.131 205.946 117.386L206.945 117.442L207.943 117.498C208.352 110.219 208.632 102.931 208.782 95.7175L207.782 95.6968ZM206.945 117.442L206.094 116.916L199.613 127.389L200.463 127.916L201.314 128.442L207.795 117.968L206.945 117.442ZM200.463 127.916L201.313 127.389L201.053 126.97L200.204 127.497L199.354 128.024L199.613 128.442L200.463 127.916ZM200.204 127.497L201.201 127.572C201.755 120.251 202.168 112.866 202.435 105.522L201.436 105.486L200.437 105.449C200.17 112.767 199.758 120.126 199.206 127.421L200.204 127.497ZM201.436 105.486L202.275 106.03L208.621 96.2407L207.782 95.6968L206.943 95.1528L200.597 104.942L201.436 105.486ZM31.3804 104.56L30.4546 104.938C32.434 109.786 34.8565 115.069 37.6507 120.665L38.5454 120.218L39.4401 119.772C36.6633 114.21 34.2628 108.975 32.3062 104.182L31.3804 104.56ZM38.5454 120.218L37.637 119.8L35.2757 124.931L36.1841 125.349L37.0925 125.767L39.4538 120.636L38.5454 120.218ZM36.1841 125.349L37.0714 124.888C34.1839 119.332 31.6107 114.033 29.4051 109.086L28.4917 109.493L27.5783 109.9C29.8029 114.89 32.394 120.225 35.2968 125.81L36.1841 125.349ZM28.4917 109.493L29.3936 109.925L32.042 104.396L31.1401 103.964L30.2383 103.532L27.5898 109.061L28.4917 109.493ZM31.1401 103.964L30.2129 104.339C30.29 104.53 30.3729 104.738 30.4546 104.938L31.3804 104.56L32.3062 104.182C32.2258 103.985 32.1503 103.795 32.0674 103.59L31.1401 103.964ZM199.438 105.407L198.439 105.37C198.207 111.747 197.862 118.156 197.412 124.528L198.41 124.598L199.407 124.669C199.859 118.275 200.205 111.843 200.437 105.443L199.438 105.407ZM198.41 124.598L199.26 124.072L193.75 115.17L192.9 115.696L192.05 116.222L197.559 125.124L198.41 124.598ZM192.9 115.696L193.898 115.752C194.261 109.296 194.501 102.83 194.615 96.4411L193.615 96.4233L192.615 96.4056C192.502 102.768 192.263 109.209 191.901 115.64L192.9 115.696ZM193.615 96.4233L192.776 96.9673L198.599 105.951L199.438 105.407L200.277 104.863L194.454 95.8794L193.615 96.4233ZM224.064 70.5786L223.064 70.5921C223.288 87.1536 222.871 104.447 221.848 121.656L222.846 121.715L223.844 121.775C224.871 104.519 225.288 87.1777 225.064 70.5651L224.064 70.5786ZM222.846 121.715L223.84 121.602L220.944 96.3145L219.951 96.4282L218.957 96.542L221.853 121.829L222.846 121.715ZM219.951 96.4282L219.1 95.9018L216.897 99.4604L217.748 99.9868L218.598 100.513L220.801 96.9546L219.951 96.4282ZM217.748 99.9868L218.747 100.016C218.941 93.2502 219.031 86.5287 219.014 79.909L218.014 79.9116L217.014 79.9142C217.031 86.5123 216.942 93.2129 216.748 99.9581L217.748 99.9868ZM218.014 79.9116L218.853 80.4556L224.903 71.1225L224.064 70.5786L223.225 70.0347L217.175 79.3677L218.014 79.9116ZM35.2134 95.4614L34.2635 95.774C35.2786 98.8587 36.4341 101.999 37.7387 105.195L38.6646 104.817L39.5904 104.439C38.3029 101.285 37.1635 98.1883 36.1633 95.1488L35.2134 95.4614ZM38.6646 104.817L37.7387 105.195C39.5213 109.561 41.695 114.31 44.1981 119.338L45.0933 118.892L45.9885 118.446C43.5027 113.453 41.3505 108.75 39.5904 104.439L38.6646 104.817ZM45.0933 118.892V117.892H40.1187V118.892V119.892H45.0933V118.892ZM40.1187 118.892L41.0141 118.447C38.3509 113.091 36.0448 108.048 34.1577 103.426L33.2319 103.804L32.3061 104.182C34.2155 108.859 36.543 113.947 39.2232 119.337L40.1187 118.892ZM33.2319 103.804L34.1577 103.426C33.8466 102.664 33.5447 101.903 33.2483 101.144L32.3169 101.508L31.3854 101.872C31.6843 102.637 31.99 103.408 32.3061 104.182L33.2319 103.804ZM32.3169 101.508L33.2188 101.94L36.1153 95.8934L35.2134 95.4614L34.3115 95.0294L31.415 101.076L32.3169 101.508ZM39.8403 85.8042L38.8639 86.0202C40.0474 91.3686 41.7191 96.9136 43.9192 102.658L44.853 102.3L45.7869 101.943C43.6195 96.2837 41.9773 90.8333 40.8167 85.5882L39.8403 85.8042ZM44.853 102.3L43.9362 101.901L41.4343 107.644L42.3511 108.043L43.2679 108.443L45.7698 102.7L44.853 102.3ZM42.3511 108.043V109.043H47.1997V108.043V107.043H42.3511V108.043ZM47.1997 108.043L46.2821 108.441C47.7675 111.869 49.4874 115.521 51.411 119.342L52.3042 118.892L53.1974 118.442C51.2882 114.65 49.5851 111.034 48.1173 107.646L47.1997 108.043ZM52.3042 118.892V117.892H47.3286V118.892V119.892H52.3042V118.892ZM47.3286 118.892L48.2222 118.443C45.5699 113.164 43.2874 108.203 41.4419 103.683L40.5161 104.061L39.5903 104.439C41.4594 109.017 43.7648 114.026 46.435 119.341L47.3286 118.892ZM40.5161 104.061L41.4419 103.683C39.8892 99.8798 38.5557 96.1643 37.427 92.5373L36.4722 92.8345L35.5173 93.1316C36.6637 96.8153 38.0167 100.585 39.5903 104.439L40.5161 104.061ZM36.4722 92.8345L37.374 93.2665L40.7422 86.2363L39.8403 85.8042L38.9385 85.3721L35.5703 92.4024L36.4722 92.8345ZM54.3765 108.043L53.459 108.441C54.9385 111.854 56.6745 115.511 58.6312 119.346L59.522 118.892L60.4128 118.438C58.4718 114.633 56.7543 111.014 55.2939 107.646L54.3765 108.043ZM59.522 118.892V117.892H54.5454V118.892V119.892H59.522V118.892ZM54.5454 118.892L55.4369 118.439C53.5107 114.65 51.7882 111.033 50.2978 107.641L49.3823 108.043L48.4668 108.446C49.9745 111.877 51.7135 115.528 53.654 119.345L54.5454 118.892ZM49.3823 108.043V109.043H54.3765V108.043V107.043H49.3823V108.043ZM154.982 98.2515L153.983 98.2889C154.171 103.305 153.575 108.024 152.203 112.452L153.159 112.748L154.114 113.044C155.558 108.384 156.177 103.438 155.981 98.214L154.982 98.2515ZM153.159 112.748L152.2 112.464C152.025 113.054 151.833 113.637 151.629 114.215L152.572 114.548L153.515 114.882C153.729 114.277 153.932 113.66 154.118 113.031L153.159 112.748ZM152.572 114.548L153.569 114.62C153.962 109.15 154.161 103.603 154.15 98.2494L153.15 98.2515L152.15 98.2535C152.161 103.556 151.964 109.054 151.574 114.477L152.572 114.548ZM153.15 98.2515V99.2515H154.982V98.2515V97.2515H153.15V98.2515ZM216.015 82.9956L215.015 82.9932C214.999 89.7052 214.872 96.5144 214.64 103.36L215.639 103.394L216.639 103.428C216.871 96.5621 216.999 89.7319 217.015 82.998L216.015 82.9956ZM215.639 103.394L214.789 102.868L208.284 113.378L209.134 113.904L209.985 114.43L216.489 103.92L215.639 103.394ZM209.134 113.904L210.133 113.954C210.493 106.785 210.731 99.62 210.839 92.5382L209.839 92.5229L208.839 92.5077C208.732 99.5654 208.495 106.708 208.136 113.854L209.134 113.904ZM209.839 92.5229L210.678 93.0669L216.854 83.5395L216.015 82.9956L215.176 82.4517L209 91.979L209.839 92.5229ZM191.66 93.4077L190.66 93.3961C190.586 99.7551 190.384 106.208 190.057 112.666L191.056 112.716L192.055 112.767C192.382 106.284 192.585 99.8049 192.66 93.4193L191.66 93.4077ZM191.056 112.716L191.906 112.19L186.221 103.004L185.371 103.531L184.52 104.057L190.206 113.243L191.056 112.716ZM185.371 103.531L186.37 103.562C186.577 96.9275 186.635 90.3485 186.537 83.9471L185.538 83.9624L184.538 83.9777C184.635 90.3463 184.577 96.8943 184.371 103.5L185.371 103.531ZM185.538 83.9624L184.698 84.5063L190.821 93.9516L191.66 93.4077L192.499 92.8638L186.377 83.4185L185.538 83.9624ZM126.144 98.2515L125.181 98.5196C125.448 99.4811 125.653 100.868 125.753 102.557L126.751 102.498L127.75 102.438C127.645 100.677 127.428 99.1344 127.107 97.9833L126.144 98.2515ZM126.751 102.498L125.753 102.557C125.873 104.569 125.842 106.87 125.672 109.121L126.669 109.196L127.667 109.271C127.842 106.944 127.875 104.552 127.75 102.438L126.751 102.498ZM126.669 109.196V108.196H121.862V109.196V110.196H126.669V109.196ZM121.862 109.196H122.862V98.2515H121.862H120.862V109.196H121.862ZM121.862 98.2515V99.2515H126.144V98.2515V97.2515H121.862V98.2515ZM134.816 98.2515L133.817 98.3033C133.993 101.683 133.964 105.416 133.751 109.139L134.75 109.196L135.748 109.253C135.965 105.468 135.994 101.662 135.815 98.1996L134.816 98.2515ZM134.75 109.196V108.196H128.673V109.196V110.196H134.75V109.196ZM128.673 109.196L129.671 109.268C129.842 106.912 129.875 104.488 129.746 102.32L128.748 102.379L127.749 102.439C127.872 104.506 127.842 106.841 127.676 109.123L128.673 109.196ZM128.748 102.379L129.746 102.32C129.654 100.774 129.476 99.2868 129.184 98.0253L128.209 98.2515L127.235 98.4776C127.494 99.5906 127.661 100.956 127.749 102.439L128.748 102.379ZM128.209 98.2515V99.2515H134.816V98.2515V97.2515H128.209V98.2515ZM45.7974 73.3706L44.7981 73.4094C45.0404 79.6447 46.0716 86.2238 47.9909 93.1513L48.9546 92.8843L49.9183 92.6173C48.0369 85.8267 47.0324 79.4007 46.7966 73.3318L45.7974 73.3706ZM48.9546 92.8843L48.0378 92.4849L45.0847 99.2642L46.0015 99.6636L46.9183 100.063L49.8714 93.2836L48.9546 92.8843ZM46.0015 99.6636L46.9409 99.3208C44.826 93.5253 43.2782 87.9676 42.2459 82.6422L41.2642 82.8325L40.2824 83.0228C41.3364 88.4597 42.9137 94.1194 45.0621 100.006L46.0015 99.6636ZM41.2642 82.8325L42.166 83.2646L46.6992 73.8027L45.7974 73.3706L44.8955 72.9385L40.3623 82.4004L41.2642 82.8325Z" fill="#00A63E" mask="url(#path-1-outside-1_50_90)"/>
<path d="M17.5332 180.98L16.7772 150.992H21.1032L21.2712 168.716C21.2992 169.836 21.2852 171.026 21.2292 172.286C21.1732 173.518 21.0892 174.694 20.9772 175.814H21.1452C21.5092 174.722 21.9572 173.49 22.4892 172.118C23.0212 170.746 23.5392 169.5 24.0432 168.38L31.7712 150.992H36.0132L36.5172 168.338C36.5172 169.094 36.5172 169.92 36.5172 170.816C36.5452 171.684 36.5452 172.552 36.5172 173.42C36.5172 174.288 36.5032 175.086 36.4752 175.814H36.5592C36.8112 175.058 37.0772 174.274 37.3572 173.462C37.6652 172.65 37.9732 171.838 38.2812 171.026C38.5892 170.186 38.8972 169.374 39.2052 168.59L46.4292 150.992H51.0912L37.9872 180.98H33.1572L32.6112 163.34C32.6112 162.612 32.5972 161.884 32.5692 161.156C32.5692 160.428 32.5692 159.728 32.5692 159.056C32.5972 158.356 32.6112 157.698 32.6112 157.082H32.4852C32.1772 158.006 31.8412 158.93 31.4772 159.854C31.1132 160.75 30.6512 161.828 30.0912 163.088L22.3212 180.98H17.5332ZM60.0943 181.4C57.7983 181.4 55.8663 180.938 54.2983 180.014C52.7583 179.09 51.5823 177.774 50.7703 176.066C49.9863 174.33 49.5943 172.3 49.5943 169.976C49.5943 168.296 49.7343 166.658 50.0143 165.062C50.3223 163.438 50.7563 161.912 51.3163 160.484C51.9043 159.028 52.6183 157.698 53.4583 156.494C54.2983 155.29 55.2643 154.24 56.3563 153.344C57.4483 152.448 58.6803 151.762 60.0523 151.286C61.4243 150.782 62.8943 150.53 64.4623 150.53C67.7383 150.53 70.2583 151.566 72.0223 153.638C73.8143 155.682 74.7103 158.468 74.7103 161.996C74.7103 163.704 74.5703 165.37 74.2903 166.994C74.0103 168.59 73.6043 170.116 73.0723 171.572C72.5403 173.028 71.8543 174.358 71.0143 175.562C70.2023 176.738 69.2643 177.76 68.2003 178.628C67.1363 179.496 65.9183 180.182 64.5463 180.686C63.2023 181.162 61.7183 181.4 60.0943 181.4ZM60.3463 177.494C61.3263 177.494 62.2363 177.312 63.0763 176.948C63.9443 176.556 64.7283 176.038 65.4283 175.394C66.1563 174.722 66.8003 173.91 67.3603 172.958C67.9203 172.006 68.3963 170.956 68.7883 169.808C69.1803 168.632 69.4743 167.4 69.6703 166.112C69.8943 164.796 70.0063 163.424 70.0063 161.996C70.0063 159.616 69.4883 157.768 68.4523 156.452C67.4163 155.108 65.9603 154.436 64.0843 154.436C63.1043 154.436 62.1803 154.618 61.3123 154.982C60.4443 155.346 59.6463 155.878 58.9183 156.578C58.1903 157.25 57.5463 158.062 56.9863 159.014C56.4263 159.966 55.9363 161.016 55.5163 162.164C55.1243 163.312 54.8163 164.544 54.5923 165.86C54.3963 167.148 54.2983 168.492 54.2983 169.892C54.2983 171.516 54.5363 172.888 55.0123 174.008C55.4883 175.128 56.1883 175.996 57.1123 176.612C58.0363 177.2 59.1143 177.494 60.3463 177.494ZM89.0513 181.4C86.7553 181.4 84.8233 180.938 83.2553 180.014C81.7153 179.09 80.5393 177.774 79.7273 176.066C78.9433 174.33 78.5513 172.3 78.5513 169.976C78.5513 168.296 78.6913 166.658 78.9713 165.062C79.2793 163.438 79.7133 161.912 80.2733 160.484C80.8613 159.028 81.5753 157.698 82.4153 156.494C83.2553 155.29 84.2213 154.24 85.3133 153.344C86.4053 152.448 87.6373 151.762 89.0093 151.286C90.3813 150.782 91.8513 150.53 93.4193 150.53C96.6953 150.53 99.2153 151.566 100.979 153.638C102.771 155.682 103.667 158.468 103.667 161.996C103.667 163.704 103.527 165.37 103.247 166.994C102.967 168.59 102.561 170.116 102.029 171.572C101.497 173.028 100.811 174.358 99.9713 175.562C99.1593 176.738 98.2213 177.76 97.1573 178.628C96.0933 179.496 94.8753 180.182 93.5033 180.686C92.1593 181.162 90.6753 181.4 89.0513 181.4ZM89.3033 177.494C90.2833 177.494 91.1933 177.312 92.0333 176.948C92.9013 176.556 93.6853 176.038 94.3853 175.394C95.1133 174.722 95.7573 173.91 96.3173 172.958C96.8773 172.006 97.3533 170.956 97.7453 169.808C98.1373 168.632 98.4313 167.4 98.6273 166.112C98.8513 164.796 98.9633 163.424 98.9633 161.996C98.9633 159.616 98.4453 157.768 97.4093 156.452C96.3733 155.108 94.9173 154.436 93.0413 154.436C92.0613 154.436 91.1373 154.618 90.2693 154.982C89.4013 155.346 88.6033 155.878 87.8753 156.578C87.1473 157.25 86.5033 158.062 85.9433 159.014C85.3833 159.966 84.8933 161.016 84.4733 162.164C84.0813 163.312 83.7733 164.544 83.5493 165.86C83.3533 167.148 83.2553 168.492 83.2553 169.892C83.2553 171.516 83.4933 172.888 83.9693 174.008C84.4453 175.128 85.1453 175.996 86.0693 176.612C86.9933 177.2 88.0713 177.494 89.3033 177.494ZM106.164 180.98L112.506 150.992H119.562C123.006 150.992 125.68 151.958 127.584 153.89C129.516 155.822 130.482 158.72 130.482 162.584C130.482 164.74 130.244 166.756 129.768 168.632C129.292 170.508 128.592 172.202 127.668 173.714C126.772 175.226 125.638 176.528 124.266 177.62C122.922 178.684 121.368 179.51 119.604 180.098C117.868 180.686 115.936 180.98 113.808 180.98H106.164ZM114.102 177.158C115.642 177.158 117.028 176.92 118.26 176.444C119.492 175.94 120.57 175.254 121.494 174.386C122.446 173.49 123.244 172.44 123.888 171.236C124.532 170.032 125.008 168.702 125.316 167.246C125.652 165.79 125.82 164.278 125.82 162.71C125.82 159.938 125.204 157.936 123.972 156.704C122.768 155.444 121.13 154.814 119.058 154.814H116.118L111.456 177.158H114.102ZM144.456 181.4C142.3 181.4 140.466 180.938 138.954 180.014C137.442 179.09 136.28 177.788 135.468 176.108C134.684 174.4 134.292 172.37 134.292 170.018C134.292 168.226 134.488 166.42 134.88 164.6C135.3 162.752 135.916 160.988 136.728 159.308C137.54 157.628 138.562 156.13 139.794 154.814C141.054 153.498 142.51 152.462 144.162 151.706C145.842 150.95 147.732 150.572 149.832 150.572C151.372 150.572 152.73 150.726 153.906 151.034C155.11 151.314 156.258 151.762 157.35 152.378L155.502 156.074C154.746 155.626 153.906 155.248 152.982 154.94C152.058 154.632 150.994 154.478 149.79 154.478C148.334 154.478 147.018 154.772 145.842 155.36C144.694 155.948 143.686 156.774 142.818 157.838C141.95 158.874 141.222 160.05 140.634 161.366C140.074 162.682 139.654 164.068 139.374 165.524C139.122 166.98 138.996 168.408 138.996 169.808C138.996 172.244 139.542 174.134 140.634 175.478C141.726 176.822 143.294 177.494 145.338 177.494C146.43 177.494 147.508 177.368 148.572 177.116C149.636 176.864 150.7 176.542 151.764 176.15L151.722 180.056C150.714 180.42 149.636 180.728 148.488 180.98C147.34 181.26 145.996 181.4 144.456 181.4ZM156.778 180.98L163.12 150.992H169.63C172.542 150.992 174.754 151.636 176.266 152.924C177.778 154.184 178.534 156.088 178.534 158.636C178.534 160.148 178.282 161.52 177.778 162.752C177.302 163.956 176.56 164.992 175.552 165.86C174.544 166.728 173.27 167.414 171.73 167.918L176.392 180.98H171.478L167.572 168.842H163.792L161.23 180.98H156.778ZM167.152 165.062C168.3 165.062 169.294 164.922 170.134 164.642C171.002 164.362 171.716 163.956 172.276 163.424C172.864 162.892 173.298 162.248 173.578 161.492C173.858 160.736 173.998 159.896 173.998 158.972C173.998 157.488 173.592 156.438 172.78 155.822C171.968 155.178 170.778 154.856 169.21 154.856H166.732L164.59 165.062H167.152ZM176.501 180.98L192.083 150.992H197.207L200.147 180.98H195.737L194.981 172.286H185.531L181.331 180.98H176.501ZM187.589 168.338H194.687L194.183 161.618C194.127 160.638 194.057 159.574 193.973 158.426C193.917 157.278 193.889 156.228 193.889 155.276H193.763C193.371 156.228 192.937 157.25 192.461 158.342C192.013 159.406 191.509 160.512 190.949 161.66L187.589 168.338ZM203.658 180.98L210 150.992H224.952L224.154 154.856H213.612L211.596 164.684H221.424L220.542 168.548H210.756L208.11 180.98H203.658ZM227.836 180.98L233.254 154.898H225.82L226.702 150.992H246.106L245.266 154.898H237.79L232.33 180.98H227.836Z" fill="white"/>
</svg>
